<svg width="1432" height="175" viewBox="0 0 1432 175" fill="none" xmlns="http://www.w3.org/2000/svg">
<line x1="4.37114e-08" y1="168.102" x2="332" y2="168.102" stroke="#92722A"/>
<line x1="1100" y1="167.5" x2="1432" y2="167.5" stroke="#92722A"/>
<path d="M332.404 29.6055C332.404 29.6055 320.674 53.3243 316.709 57.8558C312.744 62.3872 306.514 72.3943 308.213 72.2052C308.213 72.2052 332.38 42.9397 333.513 42.5621C334.646 42.1846 332.946 41.4294 342.954 40.8628L349.184 37.8416L350.506 39.9186C350.506 39.9186 352.016 47.2821 355.793 46.3378C359.569 45.3936 351.828 42.184 353.905 40.6737C355.982 39.1634 363.723 42.184 363.723 42.184" stroke="#92722A" stroke-miterlimit="10"/>
<path d="M374.108 48.4158C374.108 48.4158 377.317 62.1986 366.177 60.6883C366.177 60.6883 385.625 73.3384 392.988 80.891C392.988 80.891 401.787 92.2192 403.902 92.4083C406.016 92.5974 408.66 92.5974 406.016 88.4435C403.373 84.2897 402.617 96.3737 402.617 96.3737C402.617 96.3737 398.275 136.212 399.408 139.044C400.54 141.876 402.429 148.107 413.757 136.59C425.085 125.072 427.918 133.946 424.708 136.401C421.498 138.855 415.259 143.47 408.848 143.286C402.437 143.102 402.542 146.03 403.902 149.806L416.401 168.12C416.401 168.12 416.023 173.784 434.715 170.575C434.715 170.575 453.407 170.386 460.771 170.575C460.771 170.575 475.498 174.351 481.351 162.267C487.204 150.183 489.847 138.1 505.518 141.12C505.518 141.12 503.253 144.33 501.176 145.652C499.099 146.973 492.113 151.316 489.47 159.434C486.826 167.553 482.484 166.798 485.693 161.7C488.903 156.602 498.721 156.036 505.518 158.113C512.316 160.189 515.903 167.364 497.777 170.385C479.652 173.406 471.911 175.861 475.309 165.476C475.309 165.476 478.33 145.085 482.484 141.875C486.638 138.665 492.68 130.168 506.841 138.288C506.841 138.288 510.239 134.763 509.736 132.497L502.183 122.427C502.183 122.427 493.12 118.903 494.128 122.427C495.135 125.951 497.4 124.693 495.386 127.966C493.373 131.239 492.869 136.022 495.638 134.26C498.407 132.498 497.652 127.211 489.596 127.463C481.541 127.715 451.331 129.575 451.331 129.575C451.331 129.575 441.009 129.98 431.946 140.302C422.884 150.624 418.101 156.665 415.835 154.903C413.569 153.142 422.38 152.638 431.694 131.24C431.694 131.24 436.226 126.205 453.093 126.708C453.093 126.708 463.666 129.226 457.121 123.184C450.575 117.142 460.839 104.303 462.63 100.778C464.421 97.2537 459.134 91.7156 459.134 95.2398C459.134 98.764 468.449 110.344 484.813 122.428C484.813 122.428 486.071 124.946 488.085 117.142C490.099 109.338 499.666 115.128 500.672 117.142C501.679 119.156 500.421 120.918 492.365 109.338C492.365 109.338 479.526 100.023 479.274 99.2676C479.023 98.5119 466.435 81.3934 460.142 75.8553C460.142 75.8553 456.617 78.6244 459.387 55.7157C459.387 55.7157 463.666 35.5761 434.716 35.3246C434.716 35.3246 433.457 37.59 449.569 42.3735C449.569 42.3735 463.918 49.9261 456.617 40.3596C449.317 30.7932 435.974 32.8071 431.191 39.6045L425.15 46.4014C425.15 46.4014 421.373 56.723 418.856 58.9884C416.338 61.2538 410.548 64.7786 410.548 64.7786C410.548 64.7786 425.15 71.3239 431.695 68.0513C431.695 68.0513 428.108 65.5968 429.43 67.6737C430.751 69.7506 432.828 77.3032 447.366 71.6385C447.366 71.6385 439.248 74.6596 437.548 92.0296C435.849 109.4 435.283 124.316 431.129 124.694C431.129 124.694 426.22 112.421 422.255 106.946C418.29 101.47 410.927 92.4072 408.661 70.5057C408.661 70.5057 408.283 62.7647 401.675 65.0301C401.675 65.0301 399.787 76.925 402.808 77.1141C405.828 77.3032 403.374 62.198 396.954 63.1423C390.535 64.0865 383.172 59.555 374.109 48.4153C374.109 48.4153 366.556 42.3735 363.724 42.1845C363.724 42.1845 360.703 38.7858 355.983 39.1633C355.983 39.1633 359.382 39.73 360.514 36.3313C360.514 36.3313 355.794 38.9748 352.773 37.0864L351.452 34.821L349.564 33.8365C349.564 33.8365 370.144 32.7441 373.92 21.4158C373.92 21.4158 374.675 18.0171 377.319 17.2619C377.319 17.2619 379.584 15.185 381.095 17.2619C381.095 17.2619 384.116 17.0728 379.963 13.2971C379.963 13.2971 378.452 10.0875 377.319 9.33234C377.319 9.33234 379.773 8.01056 377.697 3.10156C377.697 3.10156 377.507 8.19963 374.487 8.19963C374.487 8.19963 367.312 8.01056 366.746 11.0317C366.746 11.0317 361.837 11.2208 350.508 14.2413L298.018 30.4792L311.989 28.0247L328.038 26.3253C328.038 26.3253 313.689 32.9337 306.891 39.9196C300.094 46.9055 311.423 35.9548 335.59 28.5913C335.59 28.5913 359.192 25.7593 361.835 25.1926C364.478 24.626 372.785 24.4375 375.051 16.8849C375.051 16.8849 372.03 13.8638 367.688 14.2413C363.345 14.6189 332.947 25.7587 332.947 25.7587L330.115 26.3253" stroke="#92722A" stroke-miterlimit="10"/>
<path d="M460.141 75.8559C452.904 75.1638 456.051 60.4993 456.051 60.4993C455.861 54.4576 451.33 53.6241 451.33 53.6241L448.498 57.1011C446.421 65.4088 440.002 65.7864 432.449 65.5973C424.897 65.4083 425.652 59.7441 425.841 59.178C426.029 58.612 428.106 52.1921 429.05 47.0941C429.995 41.996 433.582 41.6184 433.582 41.6184C433.582 41.6184 443.044 40.4709 448.876 48.2268C454.707 55.9826 452.652 57.2896 450.386 62.3877C450.386 62.3877 447.554 70.8896 451.519 72.2085L460.141 75.8559H460.141Z" stroke="#92722A" stroke-miterlimit="10"/>
<path d="M511.923 139.103C509.371 140.579 513.14 140.13 516.088 140.288C524.883 140.617 534.055 142.809 542.303 145.829C551.009 148.743 558.215 153.94 566.364 158.163C575.59 162.926 587.477 165.452 597.794 163.803C606.261 162.536 619.932 158.34 622.198 149.585C623.555 145.195 622.302 140.774 618.546 137.754C612.078 132.336 602.908 130.677 594.551 129.702C582.541 128.228 568.825 129.476 560.188 138.679C555.924 143.381 558.538 145.503 551.44 142.55C540.205 138.147 523.216 133.836 511.967 139.08L511.923 139.103Z" stroke="#92722A" stroke-miterlimit="10"/>
<path d="M587.543 129.246C586.783 126.39 585.916 123.475 585.243 120.606C584.83 118.672 584.482 116.67 584.998 114.755C585.786 111.947 588.884 110.848 590.768 112.139C594.243 114.825 591.926 124.47 591.851 128.558" stroke="#92722A" stroke-miterlimit="10"/>
<path d="M619.938 152.773C632.887 150.771 654.033 144.204 657.794 129.645C660.29 114.392 641.52 105.368 629.134 116.417C624.143 120.43 621.013 127.584 622.65 133.511C623.663 137.711 626.433 141.171 629.898 142.683C641.231 147.061 650.822 132.396 636.404 125.33C636.404 125.33 621.291 125.549 633.752 137.775C646.214 150.001 634.836 171.203 663.938 171.944" stroke="#92722A" stroke-miterlimit="10"/>
<path d="M579.006 163.129C575.914 164.895 570.886 167.165 567.05 168.549C564.265 169.668 562.246 170.147 562.025 170.659C562.454 170.919 564.249 170.825 565.176 170.852C577.712 170.681 605.861 171.19 616.511 170.665C616.498 170.515 615.561 170.236 613.942 169.71C612.504 169.244 610.582 168.573 608.659 167.684C605.932 166.448 603.285 164.796 600.74 163.129" stroke="#92722A" stroke-miterlimit="10"/>
<path d="M559.914 138.656C574.593 138.656 605.168 138.656 619.655 138.656" stroke="#92722A" stroke-miterlimit="10"/>
<path d="M756.756 146.737C756.781 144.221 776.57 148.899 776.57 148.899C835.057 149.525 800.914 157.884 771.431 154.482C766.497 153.112 782.267 152.371 783.387 152.371C790.384 152.315 800.149 151.382 806.257 154.769C810.9 157.812 809.551 163.601 805.568 167.87C801.549 172.086 795.486 173.594 789.879 173.988C783.739 174.35 777.439 174.182 771.625 171.907C767.763 170.451 765.077 167.627 764.345 163.449C763.678 159.902 763.669 154.81 765.563 152.178C768.019 148.31 774.087 149.765 773.346 147.065C772.21 141.912 774.078 129.066 775.883 122.298C777.123 117.09 778.591 112.312 780.279 107.257C781.841 102.83 783.389 98.2882 783.281 93.6506C784.231 87.2137 790.008 77.0459 795.086 72.707C800.443 68.3908 807.082 66.1588 812.484 61.674C817.969 57.7001 820.613 51.7157 824.636 46.5348C827.697 42.7108 831.646 39.2871 835.959 37.062C840.371 34.7591 844.91 35.1696 849.261 37.0563C855.994 39.9741 860.52 47.2439 861.713 54.0481C862.328 56.6298 861.812 60.0762 860.732 63.1695C859.521 66.8368 857.721 70.3734 855.517 73.5604C852.821 77.4246 849.754 80.7098 847.386 84.7864C845.98 86.99 845.502 88.5173 844.239 89.319C843.286 89.9697 841.786 88.0489 841.016 87.1211C839.681 85.4769 838.071 83.5941 836.786 81.7511C832.38 75.5073 832.411 66.3275 835.251 59.5209C837.611 53.6263 843.922 51.5942 849.817 53.1301C860.836 55.425 861.471 63.7867 855.05 71.8792C852.306 75.0661 848.153 77.6875 844.077 78.0106C841.979 78.2871 839.849 77.6063 837.866 77.9885C836.825 78.3723 836.852 80.3765 835.747 81.0244C832.308 82.9735 826.604 79.6799 822.901 78.2922C820.155 77.1992 818.152 76.2017 817.845 77.1635C817.962 79.0547 822.19 82.3916 824.289 83.7923C826.929 85.6046 829.869 86.965 832.875 88.4174C835.811 89.8629 840.336 91.8615 840.075 95.4271C839.596 98.9922 836.784 101.895 834.977 105.003C832.036 109.746 826.629 113.784 825.114 118.951C825.291 118.628 825.284 118.114 825.317 117.692C825.507 114.649 823.747 109.937 822.536 106.808C821.032 102.699 820.035 98.7146 818.23 94.6828C816.313 90.3597 813.852 85.0357 811.228 81.3815C808.949 78.1542 805.809 77.2106 801.476 77.9941C795.105 79.1223 788.287 84.7802 788.626 91.614C792.118 108.006 792.199 129.885 812.43 147.462C814.814 149.205 821.248 154.316 823.454 152.028C824.806 149.558 823.584 146.381 823.391 142.265C822.558 131.676 822.568 120.212 835.759 131.095C840.094 134.6 844.444 139.594 847.578 144.44C849.502 147.416 850.258 149.397 849.464 149.486C848.283 149.349 847.356 148.385 846.313 147.621C844.145 145.856 841.885 143.468 840.041 141.239C835.552 135.936 831.03 126.328 830.279 119.546C830.118 117.463 830.843 115.483 831.932 113.718C833.879 110.651 836.315 107.409 838.516 104.604C840.748 101.819 840.977 104.436 841.376 106.304C843.505 116.219 847.101 138.49 859.635 144.997C863.396 147.191 868.991 149.508 872.24 152.058C875.963 154.664 873.876 156.968 870.668 159.312C864.637 163.415 859.074 167.672 851.652 164.632C848.376 163.66 843.715 161.94 840.85 161.055C839.102 160.941 838.626 161.897 836.8 163.292C835.506 164.41 833.889 165.912 832.857 167.334C830.146 170.75 831.587 173.972 836.528 171.858C842.885 168.72 844.267 166.983 851.58 168.557C855.71 169.055 856.473 164.985 854.997 161.956C853.41 158.392 850.63 155.555 847.004 153.935C841.195 151.213 835.668 153.997 831.315 158.025L875.613 162.664" stroke="#92722A" stroke-miterlimit="10"/>
<path d="M890.846 112.817C887.393 113.93 881.971 115.338 878.867 117.447C878.148 117.983 877.749 118.702 877.161 119.316C876.567 119.94 875.806 120.242 875.615 120.64C875.341 121.752 876.702 122.603 876.918 123.626C877.274 131.257 876.946 153.201 877.053 158.579C877.094 159.446 876.548 160.192 876.052 160.941C874.874 162.81 875.744 163.192 877.463 163.513C878.828 163.876 880.122 164.506 881.499 164.965C885.231 166.282 888.829 167.021 890.941 170.134C891.122 170.327 891.248 170.37 891.419 170.264C893.069 168.575 896.031 167.092 898.515 166.389C900.836 165.818 902.955 164.749 905.054 163.688C906.539 163.026 906.497 161.879 905.563 160.456C905.1 159.699 904.631 158.928 904.669 158.078C904.666 153.47 904.669 129.416 904.673 124.658C904.521 123.325 906.104 122.158 906.2 120.949C906.315 120.059 905.297 119.965 905.02 119.416C904.676 117.506 902.947 116.682 901.148 116.122C898.913 115.378 895.607 114.794 894.156 112.528C893.505 111.408 893.46 109.901 892.455 109.089C891.383 108.161 890.045 109.131 890.046 110.414C889.97 111.558 890.575 112.542 890.942 112.853C891.461 113.273 891.796 112.71 892.077 111.277C892.568 107.677 891.983 102.46 891.876 99.0296C891.796 97.8548 891.794 96.8147 891.684 95.8478C891.671 95.8313 891.653 95.8654 891.626 95.9539C890.995 98.5822 890.312 102.555 890.343 105.768" stroke="#92722A" stroke-miterlimit="10"/>
<path d="M875.615 120.245C878.349 120.211 903.023 119.901 905.757 119.867" stroke="#92722A" stroke-miterlimit="10"/>
<path d="M876.918 123.391H904.972" stroke="#92722A" stroke-miterlimit="10"/>
<path d="M876.892 154.984H904.398" stroke="#92722A" stroke-miterlimit="10"/>
<path d="M876.754 158.805L904.4 158.968" stroke="#92722A" stroke-miterlimit="10"/>
<path d="M875.615 162.66H906.143" stroke="#92722A" stroke-miterlimit="10"/>
<path d="M883.042 154.985C882.857 152.835 881.315 137.329 888.49 130.071C889.06 129.497 889.867 128.833 890.436 128.454C891.099 128.058 891.331 127.844 891.775 127.962C892.723 128.575 896.299 131.314 898.254 138.332C899.8 143.882 899.812 148.768 899.279 154.985" stroke="#92722A" stroke-miterlimit="10"/>
<path d="M877.078 132.172C877.605 132.782 883.354 139.384 883.114 143.366" stroke="#92722A" stroke-miterlimit="10"/>
<path d="M899.29 143.367C899.075 142.618 898.858 141.87 898.587 141.137C897.418 137.762 894.353 134.507 892.872 133.093C890.307 129.902 884.59 140.625 883.78 141.878C883.595 142.134 883.32 142.792 883.095 142.632C883.04 142.611 882.957 142.222 882.921 141.649C882.768 139.383 882.197 136.738 881.342 134.373C880.396 131.793 879.379 130.036 878.254 128.339C878.144 128.152 878.117 128.051 878.213 127.996C881.234 127.805 897.497 127.973 902.735 127.931C903.619 127.967 903.451 128.267 902.935 129.178C902.402 130.065 901.572 131.566 901.073 133.132C900.201 135.51 899.205 141.451 899.349 142.926C899.424 142.81 899.498 142.64 899.564 142.448C900.217 140.581 902.836 134.549 904.67 132.173" stroke="#92722A" stroke-miterlimit="10"/>
<path d="M663.938 171.945C663.629 160.911 663.972 119.325 663.839 117.138C663.393 116.503 661.745 114.579 661.259 113.818C661.154 113.49 663.874 113.801 663.843 113.617C663.848 112.768 663.843 97.899 663.845 84.2082C663.821 76.7817 663.862 67.2544 663.845 61.2241C664.621 60.8607 728.323 61.3075 747.476 61.1383C749.67 60.8187 757.03 60.4298 757.146 64.8828C757.073 67.4168 757.199 100.871 757.146 112.247C757.155 112.679 757.181 112.474 757.865 112.591C758.426 112.693 759.19 112.594 759.652 112.855C759.721 113.002 759.701 113.435 759.619 114.053C759.486 115.329 758.437 117.124 757.302 117.922C756.866 119.649 756.686 163.321 756.468 170.153C756.461 172.511 681.909 173.483 663.975 171.953L663.939 171.946L663.938 171.945Z" stroke="#92722A" stroke-miterlimit="10"/>
<path d="M663.932 113.67C663.95 113.67 757.044 112.523 757.062 112.523" stroke="#92722A" stroke-miterlimit="10"/>
<path d="M663.932 117.109C663.95 117.109 757.044 118.027 757.062 118.027" stroke="#92722A" stroke-miterlimit="10"/>
<path d="M678.186 79.4999C679.622 79.4954 682.33 79.4624 683.856 79.509C683.946 80.2363 683.861 88.9761 683.886 89.7301C683.896 89.8528 683.738 89.8005 683.172 89.8124C681.688 89.7795 679.531 89.8749 678.17 89.7795C678.115 89.9101 678.158 81.2833 678.17 79.509L678.186 79.4999Z" stroke="#92722A" stroke-miterlimit="10"/>
<path d="M699.519 79.4999C700.955 79.4954 703.663 79.4624 705.189 79.509C705.279 80.2363 705.194 88.9761 705.219 89.7301C705.229 89.8528 705.071 89.8005 704.505 89.8124C703.021 89.7795 700.864 89.8749 699.503 89.7795C699.448 89.9101 699.491 81.2833 699.503 79.509L699.519 79.4999Z" stroke="#92722A" stroke-miterlimit="10"/>
<path d="M722.462 79.4999C723.898 79.4954 726.607 79.4624 728.132 79.509C728.222 80.2363 728.137 88.9761 728.162 89.7301C728.172 89.8528 728.014 89.8005 727.448 89.8124C725.964 89.7795 723.808 89.8749 722.446 89.7795C722.392 89.9101 722.434 81.2833 722.446 79.509L722.462 79.4999Z" stroke="#92722A" stroke-miterlimit="10"/>
<path d="M743.791 79.4999C745.228 79.4954 747.936 79.4624 749.461 79.509C749.551 80.2363 749.466 88.9761 749.492 89.7301C749.501 89.8528 749.343 89.8005 748.777 89.8124C747.293 89.7795 745.137 89.8749 743.775 89.7795C743.721 89.9101 743.763 81.2833 743.775 79.509L743.791 79.4999Z" stroke="#92722A" stroke-miterlimit="10"/>
<path d="M722.429 172.178C722.436 164.362 722.423 136.659 722.43 135.96C722.971 134.471 724.083 132.265 725.856 131.407C726.478 131.098 727.004 131.082 727.676 131.103C729.51 131.103 733.917 131.103 735.751 131.103C736.192 131.133 736.42 131.028 736.739 131.172C737.132 131.434 739.982 133.469 740.596 135.24C741.037 136.85 740.651 153.883 740.774 164.836C740.774 169.151 740.774 172.136 740.774 172.178" stroke="#92722A" stroke-miterlimit="10"/>
<path d="M725.297 172.177C725.295 172.134 725.294 169.479 725.291 165.583C725.184 155.473 725.48 138.231 725.171 137.593C725.037 137.361 724.742 136.773 725.131 136.245C725.722 135.452 727.044 135.328 727.924 135.251C729.051 135.203 730.363 135.243 731.716 135.23C733.605 135.232 735.2 135.229 736.61 135.23C737.008 135.219 736.953 135.308 737.273 135.751C737.952 136.779 738.46 138.644 738.499 139.9C738.509 141.082 738.48 164.725 738.482 171.683" stroke="#92722A" stroke-miterlimit="10"/>
<path d="M731.603 135.23C731.603 135.256 731.695 171.879 731.695 171.905" stroke="#92722A" stroke-miterlimit="10"/>
<path d="M675.631 112.52C675.539 110.381 677.789 99.1204 687.372 96.2344C692.055 97.404 698.214 103.212 698.111 112.52" stroke="#92722A" stroke-miterlimit="10"/>
<path d="M681.021 112.521C680.946 112.306 680.646 101.555 687.492 103.267C688.55 103.502 689.37 103.887 690.328 104.374C692.197 105.119 693.62 109.748 693.751 112.522" stroke="#92722A" stroke-miterlimit="10"/>
<path d="M687.379 103.246C687.379 103.255 687.379 112.512 687.379 112.52" stroke="#92722A" stroke-miterlimit="10"/>
<path d="M721.28 112.52C721.188 110.381 723.439 99.1204 733.022 96.2344C737.704 97.404 743.864 103.212 743.76 112.52" stroke="#92722A" stroke-miterlimit="10"/>
<path d="M726.671 112.521C726.596 112.306 726.297 101.555 733.142 103.267C734.2 103.502 735.02 103.887 735.978 104.374C737.848 105.119 739.27 109.748 739.401 112.522" stroke="#92722A" stroke-miterlimit="10"/>
<path d="M733.028 103.246C733.028 103.255 733.028 112.512 733.028 112.52" stroke="#92722A" stroke-miterlimit="10"/>
<path d="M663.932 61.1397C663.934 60.8808 677.948 28.6742 712.385 43.1701C713.534 43.7362 726.687 50.8714 729.306 60.9682" stroke="#92722A" stroke-miterlimit="10"/>
<path d="M668.52 60.9691C671.466 47.1733 695.153 39.4543 695.32 39.4884C694.426 40.2095 693.63 40.8749 692.327 42.0207C687.176 46.6787 680.278 53.2757 678.154 59.9931" stroke="#92722A" stroke-miterlimit="10"/>
<path d="M690.081 60.9673C689.795 58.0223 691.366 52.6988 692.308 49.2178C693.246 45.9264 694.336 42.4828 695.304 39.607C695.363 38.8814 702.402 54.1529 702.353 59.9919" stroke="#92722A" stroke-miterlimit="10"/>
<path d="M711.874 60.9704C709.426 53.1993 703.748 45.8312 697.646 41.0971C696.665 40.334 696.095 39.9298 695.409 39.4829C694.421 39.2178 710.442 42.6017 719.882 55.677C720.891 57.0692 721.647 58.3024 722.431 59.7656" stroke="#92722A" stroke-miterlimit="10"/>
<path d="M695.363 29.2578V39.4539" stroke="#92722A" stroke-miterlimit="10"/>
<path d="M696.155 23.0982C695.08 23.5876 692.869 25.1303 693.48 26.7297C695.186 29.7077 697.423 29.8008 699.46 27.2578C699.57 27.1408 699.078 27.3611 698.959 27.3747C695.018 28.5114 694.547 26.246 696.132 23.1584L696.155 23.0977L696.155 23.0982Z" stroke="#92722A" stroke-miterlimit="10"/>
<path d="M906.143 162.668C906.143 162.668 936.159 151.164 952.006 153.428" stroke="#92722A" stroke-miterlimit="10"/>
<path d="M929.934 167.578C929.934 167.578 970.117 130.225 1002.38 164.749" stroke="#92722A" stroke-miterlimit="10"/>
<path d="M994.121 157.516C994.121 157.516 1017.09 157.389 1022.19 167.577H1102" stroke="#92722A" stroke-miterlimit="10"/>
<path d="M971.249 150.104C971.249 150.104 976.909 102.492 990.115 92.6815C990.115 92.6815 996.997 102.869 994.122 109.66C994.122 109.66 998.793 103.246 998.416 92.6815L1008.15 106.642C1008.15 106.642 1008.6 95.3228 1005.96 88.531C1005.96 88.531 1013.89 88.1535 1016.53 92.6815C1016.53 92.6815 1020.3 80.9847 997.661 78.721C997.661 78.721 1008.23 72.3068 1013.13 71.5522C1013.13 71.5522 1002.42 67.0248 994.006 74.1935C994.006 74.1935 985.587 62.1198 979.928 61.7422C979.928 61.7422 985.587 71.5522 984.833 74.1935C984.833 74.1935 967.476 69.6661 964.081 74.1935L977.287 79.4761C977.287 79.4761 964.081 82.872 959.554 91.9275C959.554 91.9275 976.533 86.2679 981.815 85.8903C981.815 85.8903 972.383 99.0962 970.873 104.378L985.965 90.7953" stroke="#92722A" stroke-miterlimit="10"/>
<path d="M961.439 150.105C961.439 150.105 957.666 128.527 942.573 116.075C942.573 116.075 937.102 128.221 939.271 133.09C939.271 133.09 932.385 126.262 935.404 116.075L924.84 130.413C924.84 130.413 924.085 118.716 928.236 111.925C928.236 111.925 917.293 113.812 915.407 116.075C915.407 116.075 919.935 104.379 935.404 103.624C935.404 103.624 927.103 95.7007 917.671 97.2098C917.671 97.2098 937.103 94.5685 939.272 98.719C939.272 98.719 948.988 87.3998 954.27 85.8906L948.61 98.719C948.61 98.719 960.978 94.9461 968.23 97.5868L955.779 103.246C955.779 103.246 971.249 105.133 972.381 113.433L950.497 110.415C950.497 110.415 964.457 118.339 964.08 125.13C964.08 125.13 957.288 119.848 947.478 115.698" stroke="#92722A" stroke-miterlimit="10"/>
<path d="M1029.71 104.814C1028.57 104.907 1030.66 106.384 1030.98 106.717C1035.58 110.259 1040.12 116.216 1041.2 122.831C1044.56 138.156 1027.07 146.859 1014.52 140.364C1009.99 138.193 1007.61 135.728 1004.6 133.938C1001.86 132.852 1006.11 139.954 1007.62 141.745C1012.87 148.597 1022.09 153.696 1030.39 152.968C1045.61 151.636 1053.33 138.191 1050.64 125.075C1049.32 118.38 1043.82 110.518 1037.06 107.264C1034.34 106.019 1032 105.008 1029.73 104.812L1029.71 104.814Z" stroke="#92722A" stroke-miterlimit="10"/>
<path d="M416.401 168.121H329.204" stroke="#92722A" stroke-miterlimit="10"/>
<path d="M511.923 139.1C511.923 139.1 514.359 144.611 506.84 138.289" stroke="#92722A" stroke-miterlimit="10"/>
</svg>
