<svg width="139" height="106" viewBox="0 0 139 106" fill="none" xmlns="http://www.w3.org/2000/svg">
<g opacity="0.3">
<path d="M20.3281 69.4576C20.4229 69.44 20.515 69.4229 20.6045 69.4062C20.51 69.4299 20.4182 69.4467 20.3281 69.4576Z" fill="#92722A"/>
<path d="M42.0543 83.3472C42.3628 83.3535 42.7011 83.5189 43.0006 83.7323L41.3693 83.3527C41.598 83.3459 41.8261 83.3424 42.0543 83.3472Z" fill="#92722A"/>
<path d="M36.8904 57.4409C36.3228 59.1909 35.9537 61.0275 35.1971 62.6886C34.3117 64.6324 33.1002 66.4274 31.9982 68.3418C32.4705 68.3099 33.0959 68.2248 33.7202 68.2333C35.2975 68.2549 36.0346 67.542 36.6783 66.016C37.7015 63.5904 39.0682 61.2533 40.6306 59.1301C41.7798 57.5684 43.4607 56.3935 44.9325 55.0771C45.4615 54.6041 46.0717 54.2218 46.6446 53.7981C46.7308 53.8731 46.8173 53.9482 46.9035 54.0232C45.4219 56.6505 43.1574 58.9158 42.8449 62.1557C43.2537 62.2347 43.5392 62.2898 43.961 62.3714C43.6687 62.8765 43.445 63.2732 43.2116 63.664C43.0085 64.004 42.7941 64.3375 42.5848 64.6738C45.9079 61.7198 48.2738 58.2813 48.1375 53.5654C48.8245 55.2943 49.0255 57.0337 48.199 58.566C47.1085 60.5874 45.7748 62.4877 44.4315 64.358C43.5074 65.6446 42.3891 66.7917 41.2044 68.1809C42.0055 68.3357 42.5074 68.3996 42.99 68.5325C44.1418 68.85 45.1654 68.6603 45.2515 67.3304C45.3892 65.2084 47.1263 64.9697 48.6257 64.3254C48.1265 64.9548 47.6272 65.5843 47.128 66.2137C47.1882 66.2608 47.2484 66.3078 47.3085 66.3551C47.8786 65.845 48.4485 65.3349 49.1174 64.7365C49.2248 65.1116 49.2835 65.317 49.5338 66.1907C50.6904 65.1255 51.6869 64.2078 52.6831 63.2903C52.7655 63.3977 52.848 63.5051 52.9308 63.6126C52.1406 65.3417 51.0568 66.8272 49.3206 67.7653C49.2833 67.7856 49.1836 67.6899 49.098 67.6396C49.2789 67.3344 49.4594 67.0294 49.6048 66.7839C48.5087 67.4629 47.425 68.134 46.1988 68.8937C48.4462 69.1021 50.557 69.3075 52.6704 69.4808C52.9232 69.5017 53.2554 69.4234 53.4405 69.2634C54.7715 68.1119 56.0405 66.8863 57.4039 65.7755C57.8682 65.397 58.5462 65.2814 59.5118 64.8893C60.3446 62.988 61.423 60.6889 62.3423 58.3282C62.6208 57.6133 62.4589 56.7267 62.5033 55.8227C58.9812 57.1351 57.5613 60.0887 55.5205 62.4921C55.7007 61.5611 56.0346 60.7346 56.4943 59.9853C57.8472 57.7793 59.8299 56.1979 61.9357 54.7814C62.1646 54.6274 63.121 54.9986 63.1334 55.1701C63.2203 56.3804 63.3798 57.6651 63.0712 58.8053C62.6402 60.3976 61.9035 61.9263 61.1508 63.4075C59.8933 65.8819 58.9888 68.6465 56.1569 70.0878C57.45 70.5889 58.6988 71.0634 59.9859 71.219C60.5073 71.2818 61.3658 70.7869 61.6281 70.3045C62.2104 69.234 62.5129 68.0111 62.9296 66.8502C63.0827 66.8951 63.2358 66.94 63.3889 66.9849C63.2453 67.7283 63.1016 68.4718 62.9579 69.2153C63.0951 69.265 63.232 69.3147 63.3692 69.3645C64.6194 67.1748 65.8699 64.9852 67.1202 62.7955C67.2558 62.8769 67.3914 62.9583 67.5269 63.0398C66.4951 66.3018 64.2846 68.8735 62.3005 71.6785C63.16 71.6251 64.0077 71.5575 64.5988 71.1322C67.8784 68.7733 69.974 65.5905 70.7856 61.615C70.9301 60.9065 70.9307 60.1367 70.8322 59.4181C70.6903 58.3829 70.0601 57.9397 69.139 58.3474C68.855 59.0335 68.5419 59.6292 68.1137 60.1254C67.1201 61.2765 66.0721 62.3805 65.0436 63.5016C64.719 63.8555 64.3868 64.2026 64.0584 64.5529C63.9539 64.48 63.8498 64.407 63.7454 64.3341C63.9555 63.9173 64.1114 63.4602 64.3849 63.0902C65.6491 61.3799 66.9683 59.7103 68.2198 57.9913C68.7184 57.3065 69.2278 56.6688 70.1327 57.0881C71.1213 57.5463 71.964 58.2178 71.8764 59.4947C71.8323 60.1405 71.778 60.7888 71.6698 61.4261C71.1944 64.2241 70.6141 66.9633 68.4914 69.1053C67.562 70.0431 66.8106 71.1574 65.854 72.346C66.5543 72.5671 67.0723 72.7216 67.584 72.8944C69.2541 73.4585 70.5316 73.1169 71.4226 71.4588C71.8528 70.6579 72.511 69.9686 73.1313 69.288C73.3313 69.0686 73.7901 68.8752 74.0426 68.9535C74.8554 69.2054 75.106 68.7347 75.3784 68.1492C75.6836 67.4933 76.0431 66.8623 76.379 66.2208C76.5413 66.2956 76.7036 66.3705 76.8657 66.4452C76.4497 67.7765 76.034 69.1081 75.6193 70.4353C76.8005 69.8235 77.2766 68.1504 78.8417 67.9351C78.9352 67.9223 79.0167 67.7276 79.0802 67.6054C79.9452 65.9352 80.9183 64.3266 80.6789 62.2884C80.49 60.6793 79.8947 60.2329 78.5937 61.1674C77.4694 61.9751 76.516 63.021 75.262 64.1673C75.5942 62.4588 76.3492 61.197 77.6951 60.5538C78.6035 60.1199 80.0515 59.7548 80.7238 60.1886C81.3972 60.6233 81.7588 62.1377 81.6258 63.0908C81.4212 64.5575 80.9165 66.1053 80.1112 67.339C78.6241 69.6171 76.8271 71.6924 75.0341 74.0139C76.5672 74.4788 78.3292 75.0521 80.1199 75.5163C80.4138 75.5924 80.9498 75.2762 81.1696 74.9862C81.691 74.2978 82.0847 73.5134 82.539 72.773C83.2238 71.6563 83.9157 70.5438 84.6048 69.4296C84.7313 69.501 84.8578 69.5722 84.9843 69.6437C84.2419 71.3526 83.4995 73.0615 82.7 74.9021C83.5881 73.9626 84.2724 73.0083 85.1684 72.338C87.1114 70.8844 87.9656 68.7012 89.1741 66.7549C89.6784 65.9429 89.5711 64.8193 88.7593 64.6264C88.1421 64.4799 87.2196 65.2666 86.5647 65.8C86.284 66.0287 86.3729 66.6798 86.2288 67.1176C86.0687 67.6052 85.8346 68.0684 85.6327 68.5423C85.5149 68.5079 85.3971 68.4738 85.279 68.4394C85.3538 67.7829 85.4284 67.1263 85.5032 66.4698C85.3284 66.3997 85.1533 66.3296 84.9784 66.2596C83.7998 68.4577 82.6227 70.6567 81.4417 72.8538C81.0363 73.6082 80.9944 74.6841 79.4932 74.8791C79.7761 74.0153 79.8736 73.2767 80.2319 72.7007C81.6924 70.3537 83.1114 67.9624 84.797 65.7818C85.5845 64.7628 86.9242 64.1564 88.059 63.4346C88.3057 63.2778 88.8175 63.3036 89.085 63.4578C89.9361 63.948 90.5497 66.8862 89.9496 67.6746C88.1101 70.09 86.2301 72.475 84.3475 74.8571C84.0495 75.234 83.6552 75.5342 83.1347 76.0338C83.9877 76.3913 84.6433 76.7103 85.3284 76.9432C86.3839 77.3022 87.0418 77.2206 87.377 75.8253C88.2197 72.3196 90.1276 69.2898 92.1781 66.3739C92.7546 65.5543 93.4957 64.8104 94.2875 64.1942C95.0472 63.6026 95.9896 63.3395 96.7737 64.2439C97.5671 65.1588 97.7209 68.0555 97.1795 69.1345C96.713 70.0643 96.3552 71.0522 95.9972 72.0318C95.6608 72.953 95.3225 73.83 94.374 73.8948C95.151 71.9615 95.9734 70.0123 96.7032 68.029C96.8836 67.5391 96.8875 66.9042 96.7477 66.3983C96.6014 65.8687 96.2753 65.1443 95.8595 65.0039C95.4495 64.8654 94.6441 65.2026 94.3326 65.5896C92.9264 67.3348 91.485 69.0836 90.35 71.0047C89.5181 72.4128 89.1113 74.0803 88.5926 75.6577C88.5012 75.936 88.7903 76.3397 89.0521 77.1381C90.1656 76.1039 91.0433 75.2887 91.9151 74.4792C92.3583 75.063 92.5622 75.3313 92.7657 75.5995C92.9344 75.8728 93.1033 76.1462 93.272 76.4193C92.1531 76.7763 91.0343 77.1337 89.9154 77.4907C92.3381 78.6919 94.296 78.7372 95.8058 76.5552C95.9973 76.2787 96.6338 76.3108 97.4768 76.0933C96.8208 77.2527 96.3848 78.0233 95.9488 78.7938C96.8517 78.1951 98.1138 77.5465 98.2259 76.7386C98.4634 75.0267 99.8685 74.6233 100.883 73.6788C100.742 74.4078 100.601 75.1371 100.469 75.8218C103.017 74.8605 104.835 73.2099 105.54 70.4392C105.688 70.9022 105.862 71.436 105.67 71.7293C104.85 72.9786 103.978 74.2041 103.012 75.3428C102.453 76.0018 101.681 76.4799 101.005 77.0391C100.017 77.8546 99.1153 78.822 98.0173 79.4409C96.998 80.0154 95.8678 80.5359 94.5377 79.9937C92.9457 79.3444 91.2696 79.3496 89.6258 80.0632C90.8375 80.2846 92.0491 80.1698 93.253 80.2232C93.8509 80.2498 94.4644 80.525 95.0179 80.796C95.7464 81.1523 96.4226 81.6155 97.1212 82.0326C97.1713 81.9446 97.2214 81.8569 97.2715 81.7688C97.1997 81.5986 97.1279 81.4287 97.0459 81.2341C98.1678 81.5396 99.1821 81.7956 100.183 82.0951C100.992 82.3369 101.217 81.9774 101.551 81.2511C102.739 78.6676 103.894 76.0324 105.441 73.6649C106.336 72.2943 107.889 71.302 109.273 70.3193C110.397 69.5208 112.444 70.0839 112.623 71.0749C112.997 73.1454 112.52 75.0464 111.192 76.6518C109.295 78.946 107.304 81.1634 105.291 83.4852C106.5 83.9749 107.873 84.6318 109.314 85.0663C109.917 85.2483 110.774 85.1561 111.324 84.8469C113.282 83.7471 115.202 82.5637 117.045 81.2815C117.909 80.6811 119.086 80.2105 119.267 78.6303C118.193 78.9788 117.296 79.1777 116.48 79.5521C114.163 80.614 111.653 81.3609 110.005 83.5505C109.732 83.9132 109.103 84.0079 108.639 84.2266C108.574 84.0866 108.51 83.9464 108.445 83.8064C111.123 81.1282 114.165 79.0269 117.927 78.1314C118.514 77.9914 119.208 78.0468 119.794 78.2155C120.604 78.4488 120.793 79.0751 120.148 79.6786C119.342 80.4321 118.495 81.1634 117.577 81.7695C115.853 82.9078 114.053 83.9293 112.316 85.048C111.965 85.2739 111.512 85.7412 111.544 86.0519C111.578 86.3767 112.098 86.8152 112.478 86.9087C113.632 87.1924 114.815 87.3865 115.998 87.5129C117.001 87.62 118.073 87.3871 119.019 87.6502C121.381 88.3076 123.534 87.5989 125.601 86.7241C126.476 86.3537 127.149 85.3616 127.752 84.5338C128.2 83.918 127.759 83.4972 127.064 83.4356C126.514 83.3868 125.96 83.3876 125.408 83.3664C126.186 82.9311 126.988 82.7026 127.783 82.725C128.739 82.752 129.185 83.7633 128.669 84.5411C127.498 86.3068 126.171 87.8591 123.9 88.2149C122.401 88.4498 120.913 88.753 119.422 89.0336C119.302 89.0561 119.195 89.1398 119.095 89.1887C119.148 89.6287 119.195 90.019 119.262 90.5732C116.381 89.4757 113.642 88.4326 110.904 87.3893C110.783 87.5671 110.662 87.7449 110.542 87.9226C113.776 89.698 115.449 92.6791 117.117 95.6637C117.021 95.7394 116.925 95.8151 116.828 95.8908C115.69 94.3275 114.552 92.7643 113.413 91.2009C113.353 91.2655 113.293 91.3299 113.234 91.3942C113.33 91.9742 113.426 92.5539 113.558 93.3486C112.2 92.4646 112.757 90.6436 111.195 89.7891C111.349 90.6468 111.43 91.1001 111.511 91.5531C110.667 90.1722 110.307 88.5092 109.339 87.3592C108.294 86.1174 106.485 86.2949 104.788 86.1322C106.247 88.9394 108.581 90.9134 109.476 93.791C107.843 90.8336 104.384 89.3993 103.496 85.8611C103.401 85.9478 103.306 86.0345 103.211 86.1213C103.169 86.5406 103.127 86.9601 103.085 87.3794C102.984 87.4438 102.883 87.5081 102.782 87.5725C101.504 84.7063 99.5225 83.1649 96.2789 83.8078C96.2863 84.2335 96.2928 84.5905 96.2991 84.9475C95.6253 83.9907 95.7469 82.2726 93.8635 82.8354C94.6871 83.6174 95.7106 84.2925 95.1107 85.7456C95.0069 85.9972 95.2941 86.3923 95.3414 86.7297C95.3879 87.0602 95.3785 87.4028 95.3579 87.7378C95.3293 88.2002 95.1115 88.7141 95.2489 89.1112C95.6377 90.2357 96.1826 91.3049 96.6293 92.4109C96.7731 92.7663 96.9771 93.2417 96.8534 93.5361C96.3363 94.7674 96.9236 95.8994 98.2305 96.114C98.5638 96.1688 98.9615 96.3885 99.1532 96.658C100.481 98.5242 100.466 98.5346 102.409 97.1471C102.562 97.5896 102.705 98.0033 102.848 98.417C102.692 98.2548 102.536 98.0924 102.38 97.9302C102.094 98.3438 101.784 98.7431 101.528 99.1738C100.986 100.083 100.432 99.7821 99.8604 99.2252C99.4642 98.8396 99.094 98.4225 98.669 98.0718C96.8285 96.5537 95.5318 94.7617 95.2861 92.2762C95.1834 91.2384 94.9528 90.0869 94.3927 89.2459C93.0607 87.2452 92.6867 85.0999 92.7863 82.7818C92.7984 82.4995 92.6354 82.0259 92.4344 81.9474C90.9154 81.3553 89.42 80.5264 87.5723 81.0409C87.6234 81.8608 87.3748 82.8925 87.7735 83.3221C88.9776 84.6201 88.3032 85.8031 87.895 87.5466C87.2958 86.751 86.8742 86.279 86.5559 85.7453C86.2084 85.1623 86.062 84.4345 85.6389 83.9276C84.9458 83.0966 84.598 82.3909 85.2534 81.3237C85.4271 81.0409 84.9562 79.9195 84.6399 79.8527C83.1795 79.5441 81.6691 79.472 80.0136 79.2979C80.3961 80.8135 80.6995 82.0159 81.0031 83.2183C80.8546 83.2564 80.7058 83.2945 80.5573 83.3326C80.3493 82.969 80.141 82.605 79.7596 81.9382C79.8698 83.2689 79.952 84.2574 80.0357 85.2663C78.9557 84.9033 78.3996 83.4138 78.7155 82.2357C78.9086 81.5162 78.9649 80.723 78.8872 79.9835C78.8466 79.5978 78.3827 79.2569 78.1099 78.8958C77.8777 79.2763 77.4064 79.6894 77.4528 80.0317C77.6971 81.8296 77.9924 83.6295 78.4228 85.3908C78.9137 87.3995 79.4921 89.3945 80.1808 91.3429C80.4891 92.2154 81.1593 92.9595 81.6653 93.7617C81.7831 93.6995 81.9012 93.6374 82.019 93.5752C82.3236 92.4776 82.6283 91.3797 83.0021 90.0321C83.3623 90.4459 83.5861 90.5933 83.5675 90.6982C83.3619 91.8557 83.1946 93.0286 82.8669 94.1537C82.4533 95.5724 81.7925 95.773 80.9007 94.5682C79.8755 93.183 79.1109 91.5851 78.3732 90.0133C77.8737 88.9492 77.5474 87.788 77.2649 86.6404C76.6032 83.9538 76.0569 81.2379 75.354 78.5628C75.2368 78.1167 74.6228 77.667 74.1384 77.4833C73.3255 77.1746 72.4262 77.1017 71.5744 76.8858C70.7949 76.6881 70.4923 76.9851 70.3913 77.7549C69.9473 81.1323 69.8386 84.4654 71.3069 87.6676C71.495 88.0776 71.4968 88.573 71.6481 89.3562C71.0267 88.7005 70.6792 88.334 70.3387 87.975C69.7999 89.1356 69.4026 90.162 68.8615 91.106C68.3741 91.9566 67.4146 92.1414 66.9164 91.3546C65.703 89.4388 64.7142 87.3803 63.6444 85.3741C63.6384 85.3628 63.768 85.2791 63.9528 85.1397C64.7066 86.4303 65.382 87.7379 66.2094 88.9407C66.6437 89.5721 67.3443 90.0202 67.9245 90.5513C68.3716 90.0112 69.0245 89.5352 69.2181 88.9155C69.5117 87.9758 69.7148 86.8943 69.5425 85.949C69.2815 84.5175 68.6496 83.1562 68.205 81.7555C67.9735 81.0258 67.8062 80.2755 67.61 79.5346C67.7497 79.4922 67.8894 79.4498 68.0291 79.4077C68.3511 80.1245 68.6728 80.8412 68.9947 81.558C69.1093 81.5447 69.2239 81.5315 69.3385 81.5179C69.4236 80.025 69.5254 78.5328 69.5779 77.0386C69.5865 76.7967 69.4213 76.368 69.2632 76.3298C68.1077 76.0507 66.9337 75.8495 65.7124 75.6135C65.7887 76.9249 67.3175 77.4699 66.485 78.9821C65.8646 78.2886 65.3457 77.7083 64.8269 77.1279C64.6887 77.1842 64.5509 77.2403 64.4127 77.2965C64.7731 78.2624 65.0749 79.2559 65.5109 80.1862C65.9302 81.0813 65.7132 81.4722 64.7036 81.5418C64.5267 81.1822 64.3545 80.832 64.1413 80.3985C63.8824 80.611 63.6988 80.7384 63.5445 80.8947C63.3992 81.0419 63.2843 81.2194 63.1562 81.3833C63.0214 81.3706 62.8867 81.3578 62.7523 81.3452C62.6793 80.3397 62.6065 79.3346 62.5338 78.3292C63.5808 78.3007 63.3938 77.4228 63.5069 76.8184C63.5907 76.3718 63.4686 75.8865 63.4381 75.4184C62.9866 75.511 62.5348 75.6033 62.0418 75.7043C61.4318 74.8562 58.7427 73.7706 57.6767 74.1112C57.4087 74.1968 57.0627 74.8366 57.1483 75.0843C57.4157 75.8568 57.8795 76.5596 58.2548 77.296C59.4226 79.5885 60.5954 81.8786 61.7334 84.186C61.8673 84.4577 61.7976 84.8303 61.822 85.1562C61.66 85.2067 61.4984 85.2573 61.3365 85.3076C61.1139 84.7689 60.7669 84.2473 60.6905 83.6887C60.3714 81.3558 59.0918 79.5996 57.4264 78.0831C57.1202 77.8041 56.573 77.7904 56.3057 77.707C56.3548 79.0761 56.3927 80.1385 56.4307 81.2009C56.187 81.3189 55.9432 81.4369 55.6995 81.5552C55.3662 80.679 55.0326 79.8025 54.6994 78.9264C54.5478 79.0197 54.3962 79.1133 54.2447 79.2067C55.1271 82.0213 55.8778 84.9208 58.0909 87.0922C59.2075 88.1877 60.5542 88.9178 62.2086 88.0015C62.2255 89.0658 61.7651 89.5192 60.6871 89.2616C58.6999 88.7869 56.9847 87.7465 56.0129 85.8961C55.2224 84.3908 54.5731 82.7891 54.0558 81.1676C53.291 78.7712 52.3096 76.3997 52.6027 73.771C52.6273 73.5514 52.0694 73.1349 51.7173 73.0323C50.8714 72.7855 49.9873 72.671 49.1186 72.5031C49.1254 72.3404 49.132 72.1774 49.1389 72.0148C50.3655 71.6599 51.5921 71.3049 52.8186 70.95C50.8231 71.0614 48.839 69.2066 46.561 70.8713C47.4598 71.0901 48.0042 71.2225 48.5485 71.3549C48.5691 71.4753 48.5897 71.5954 48.6103 71.7158C48.1336 71.9414 47.6572 72.1672 46.8795 72.5357C48.0519 74.2697 49.2172 75.993 50.3824 77.7162C50.3085 77.7693 50.2343 77.8224 50.1604 77.8755C49.4134 77.0576 48.6663 76.2397 47.919 75.4217C47.8393 75.4825 47.7594 75.5433 47.6798 75.6041C47.9965 76.3071 48.3132 77.0101 48.7926 78.0743C48.0127 77.7103 47.6315 77.5324 47.3059 77.3805C47.2884 77.8855 47.2696 78.42 47.2512 78.9544C46.8041 78.7739 46.7004 78.5553 46.5905 78.3398C45.9506 77.084 46.7282 75.3119 45.1752 74.389C45.1789 75.7121 45.1833 77.0354 45.1879 78.3803C45.1064 78.2838 45.0006 78.1492 44.8854 78.0236C43.4303 76.4366 43.8919 74.4797 43.8215 72.618C43.8051 72.1863 43.6694 71.4245 43.4811 71.3892C42.4204 71.1902 41.3268 71.1669 40.2446 71.0838C40.6499 72.3033 41.1055 73.104 41.6461 73.8426C42.176 74.5667 42.7918 75.2279 43.3698 75.9165C43.2214 76.0377 43.0732 76.1589 42.9248 76.28C41.7056 74.8536 40.4864 73.4273 39.0945 71.7993C39.7652 73.2817 40.7753 74.4056 40.5565 76.1333C40.0333 75.8096 39.7339 75.6242 39.2141 75.3023C39.5172 76.5 39.9517 77.423 39.9419 78.3416C39.9212 80.3265 41.9653 82.3014 43.954 81.9519C44.3126 82.8185 44.2431 83.4387 43.0969 83.3118C42.0814 83.1994 39.5354 80.6487 39.3201 79.6756C39.1321 78.8249 38.8172 77.9982 38.6815 77.1415C38.5185 76.113 38.5382 75.0555 38.3809 74.0256C38.2467 73.1477 37.9738 72.2914 37.7622 71.4254C37.6367 71.4598 37.511 71.4941 37.3855 71.5285C37.2657 71.8135 37.1462 72.0983 37.0091 72.4241C35.977 70.9781 34.2758 70.6114 32.6837 71.5636C35.3423 73.9371 37.0928 76.8251 37.9035 80.2396C35.1857 75.3794 35.1857 75.3794 33.753 75.3198C34.3266 76.122 34.8626 76.8716 35.3986 77.621C35.2912 77.7084 35.1841 77.7957 35.0767 77.8831C34.2193 77.1586 33.362 76.4341 32.505 75.7096C32.9508 77.2595 33.5001 78.7142 34.3766 79.9336C35.2391 81.1335 35.927 82.8208 37.9953 82.4105C38.0937 82.8484 38.1776 83.2232 38.2583 83.5818C38.876 83.5364 39.4811 83.4746 40.0791 83.4245C39.728 83.7192 38.8868 84.0296 36.923 83.4555C35.7782 83.1207 34.2768 82.0643 32.8473 80.8743C33.235 80.8544 33.6322 80.8331 34.045 80.8076C33.025 79.1336 31.9496 77.528 31.0516 75.8284C30.5938 74.9616 30.4007 73.9363 30.2086 72.9591C30.158 72.7026 30.5549 72.3556 30.7508 72.053C30.8755 71.8604 31.0087 71.6732 31.1381 71.4838C30.9165 71.3713 30.6877 71.1489 30.4745 71.1632C28.0928 71.3229 25.6441 71.2281 23.3509 71.7777C21.7855 72.1526 20.2057 72.5466 18.7024 73.1406C17.5789 72.6009 16.4105 71.8933 15.5448 71.0117C16.1583 70.3443 16.7056 69.6289 17.2225 68.8904C17.9551 69.0601 18.7499 69.2564 19.5082 69.3959C19.4706 69.4733 19.4343 69.5484 19.3951 69.6281C19.7402 69.5654 20.0459 69.5083 20.3291 69.4554C20.4189 69.4442 20.5109 69.4277 20.6055 69.404C21.032 69.325 21.4095 69.2567 21.7866 69.1967C22.3328 69.1099 22.91 68.9173 23.4298 69.0118C26.6019 69.5889 28.1414 68.0946 28.8117 65.1253C29.0851 63.914 29.8198 62.807 30.3445 61.6525C30.4935 61.7011 30.6425 61.7495 30.7915 61.7981C30.3736 63.9605 29.9556 66.1233 29.5377 68.2858C29.6243 68.3733 29.7107 68.4605 29.7973 68.5478C30.0614 68.2618 30.4365 68.0199 30.5697 67.6822C31.0767 66.3963 31.4801 65.07 31.9759 63.7794C32.1778 63.2542 32.5169 62.7816 32.7934 62.2849C32.9167 62.3246 33.0402 62.3644 33.1635 62.4041C32.9598 63.4583 32.756 64.5127 32.4825 65.9276C32.9157 65.4369 33.2172 65.2247 33.3397 64.9363C34.2613 62.77 35.2139 60.6126 36.0019 58.3973C36.2222 57.7782 35.8546 56.9713 35.888 56.2567C35.9093 55.8025 36.1724 55.3591 36.4399 54.584C36.1927 54.1887 35.707 54.0218 35.1371 53.9663C35.7075 53.7647 36.3215 53.7607 36.9049 53.8684C37.1894 54.4961 37.4652 55.1487 37.5193 55.8069C37.5613 56.3291 37.0724 56.8799 36.8904 57.4409ZM103.715 84.6162C104.918 84.9786 106.121 85.341 107.323 85.7037C107.366 85.5579 107.409 85.4124 107.452 85.2667C106.223 84.9043 104.994 84.5421 103.765 84.1797C103.748 84.3252 103.732 84.4707 103.715 84.6162ZM102.589 82.3238C103.284 81.3362 103.985 80.3532 104.668 79.3573C104.794 79.1727 104.789 78.8182 104.941 78.7459C105.378 78.5383 105.864 78.4352 106.331 78.2909C106.266 78.7335 106.344 79.2818 106.109 79.5987C105.453 80.4856 104.664 81.2735 103.936 82.1078C103.739 82.3341 103.571 82.5866 103.206 83.0706C103.739 82.923 104.05 82.9318 104.2 82.7811C106.055 80.9259 107.958 79.1117 109.692 77.1487C110.592 76.1309 111.341 74.9032 111.844 73.6445C112.09 73.0274 111.809 71.9921 111.399 71.402C111.178 71.0836 110.096 71.1006 109.556 71.3296C108.731 71.6794 107.857 72.2048 107.326 72.9014C105.944 74.7154 103.782 76.0844 103.78 78.7635C103.78 79.1262 103.429 79.4891 103.239 79.8516C102.866 80.5676 102.491 81.2833 102.117 81.9992C102.274 82.1075 102.432 82.2155 102.589 82.3238ZM84.1895 77.3757C82.9529 77.1367 81.7161 76.8977 80.4795 76.6587C80.4449 76.7616 80.4103 76.8648 80.3754 76.968C81.6266 77.2098 82.8782 77.4517 84.1295 77.6935C84.1493 77.5877 84.1695 77.4817 84.1895 77.3757ZM78.8698 78.0142C79.8283 78.1518 80.7869 78.2898 81.7452 78.4274C81.7659 78.219 81.7867 78.0103 81.8075 77.8019C80.8443 77.735 79.8811 77.6683 78.9179 77.6014C78.9018 77.7388 78.8856 77.8765 78.8698 78.0142ZM76.2012 76.01C76.0376 76.2608 75.9551 76.4108 75.8498 76.5417C75.7418 76.6758 75.6111 76.7916 75.4902 76.9155C75.5979 77.0694 75.7055 77.2236 75.8135 77.3779C76.2132 77.0266 76.8138 76.7462 76.9689 76.3082C77.2518 75.5089 76.5504 75.321 75.9256 75.2331C74.4076 75.0193 72.8873 74.8201 71.3246 74.884C72.6309 76.4626 74.39 75.984 76.2012 76.01ZM65.4318 74.7019C66.3194 74.7338 67.2236 74.3129 68.1204 74.0911C68.1661 74.1954 68.2116 74.2997 68.2573 74.4039C68.0656 74.6099 67.874 74.8156 67.6173 75.0914C68.6495 75.4541 69.5414 75.7947 70.2256 74.6138C67.7345 73.5747 65.2556 73.2891 62.6469 73.9258C63.5746 74.2025 64.4952 74.6682 65.4318 74.7019ZM59.4989 73.4287C60.0719 73.5899 60.6145 73.8587 61.1008 74.053C60.9185 72.4908 60.9164 72.4853 58.5913 72.4211C58.4152 73.1802 58.9468 73.2733 59.4989 73.4287ZM54.8462 72.9167C56.0831 72.7453 57.3203 72.5743 58.5572 72.4029C57.9 71.2271 56.8237 72.0441 55.9563 71.9192C55.5889 71.8664 55.1576 72.258 54.7556 72.4474C54.7856 72.6039 54.8159 72.7602 54.8462 72.9167ZM44.764 73.6657C44.7877 73.9088 45.0311 74.1306 45.1744 74.3622C45.1745 74.3665 45.1745 74.3707 45.1745 74.375C45.756 74.4542 46.3389 74.5337 47.0072 74.6246C46.81 74.0688 46.5998 73.2832 46.2546 72.5622C45.9708 71.9698 45.3846 71.5316 44.8435 72.1669C44.5821 72.4727 44.7146 73.1602 44.764 73.6657ZM39.7101 70.3571C39.7433 70.2103 39.7765 70.0635 39.8097 69.9166C38.9748 69.6893 38.1396 69.4622 37.3047 69.2348C37.2557 69.4446 37.2067 69.654 37.1574 69.8637C38.0084 70.0282 38.8594 70.1927 39.7101 70.3571ZM37.6837 67.3557C38.9334 66.0221 40.45 64.7784 41.4702 63.211C42.4969 61.6338 43.0297 59.7346 43.7791 57.9763C43.6333 57.9094 43.4879 57.8422 43.3422 57.7752C40.2816 59.7195 37.0992 65.2199 37.6837 67.3557ZM23.6246 69.9093C22.1959 70.1348 20.7729 70.4303 19.3355 70.5482C18.8211 70.5904 18.2718 70.2024 17.5257 69.9341C17.4137 70.1436 17.1791 70.5832 16.888 71.1277C19.5159 72.2904 21.4672 70.3441 23.7177 70.3732C23.6865 70.2184 23.6555 70.0637 23.6246 69.9093Z" fill="#92722A"/>
<path d="M33.1017 56.5256C33.5891 55.8607 33.9605 54.8247 35.0408 55.0712C33.6806 57.1201 32.334 59.1481 30.9874 61.1765C30.8933 61.1424 30.7995 61.1081 30.7054 61.0741C30.9223 60.3527 31.1396 59.6311 31.4227 58.6899C31.3143 58.6978 31.2088 58.7049 31.1018 58.7126C31.3636 58.34 31.6529 57.9309 31.9564 57.5063C32.3639 57.3426 32.7424 57.0161 33.1017 56.5256Z" fill="#92722A"/>
<path d="M50.5669 57.3559C51.2791 55.8235 52.3587 55.0032 53.9279 54.5921C55.0196 54.306 55.5609 54.5931 55.4669 55.7481C55.3435 57.2664 55.2267 58.7898 54.9925 60.293C54.9082 60.8344 54.4922 61.3244 54.2278 61.8378C54.1368 61.7845 54.0456 61.7309 53.9547 61.6777C54.117 60.0006 54.279 58.3237 54.4413 56.6465C54.3002 56.5663 54.1592 56.4861 54.0181 56.4058C53.2212 58.9485 50.8237 59.8428 49.183 61.5163C48.6003 62.1106 48.0383 62.7254 47.4667 63.3309C47.3722 63.2651 47.278 63.1993 47.1835 63.1335C47.4783 62.5333 47.7288 61.9059 48.0767 61.3381C48.8955 60.002 49.9123 58.7645 50.5669 57.3559Z" fill="#92722A"/>
<path d="M127.618 87.7409C128.749 87.2271 129.887 86.7001 131.07 86.3347C132.483 85.898 133.874 86.1702 134.916 87.2361C135.259 87.5874 135.444 88.4835 135.242 88.9172C133.942 91.7142 131.377 93.2014 128.322 92.7441C126.015 92.3986 123.764 91.6847 121.488 91.1347C121.439 90.9411 121.39 90.7473 121.341 90.5537C121.56 90.4964 121.795 90.4709 121.997 90.3766C123.873 89.5022 125.734 88.5967 127.618 87.7409ZM124.34 90.7161C125.199 90.6975 126.059 90.6787 127.055 90.6571C126.858 91.0279 126.724 91.2783 126.587 91.5359C129.426 92.6366 132.789 91.559 134.329 89.1897C134.913 88.2908 134.583 87.6702 133.804 87.454C132.911 87.206 131.813 87.0091 130.994 87.3103C128.695 88.1569 126.493 89.2705 124.253 90.2789C124.282 90.4248 124.311 90.5706 124.34 90.7161Z" fill="#92722A"/>
<path d="M91.3553 96.0039C91.664 96.2686 92.8766 96.1189 92.9304 95.9387C93.3805 94.435 94.1121 92.9257 93.0447 91.3194C92.323 90.233 91.822 88.9996 91.2223 87.8317C91.3381 87.7666 91.4538 87.7011 91.5696 87.636C93.6921 89.4026 94.752 94.6055 93.4696 96.919C93.054 97.6685 92.3971 97.9021 91.7313 97.4627C90.7886 96.8407 89.8756 96.1303 89.0893 95.3221C87.0698 93.2466 86.6618 90.5293 86.3347 87.8023C86.8552 88.5396 87.1921 89.353 87.3815 90.1997C87.934 92.6738 89.5295 94.4379 91.3553 96.0039Z" fill="#92722A"/>
<path d="M102.434 67.6245C103.018 67.2181 104.071 67.0429 104.701 67.2899C105.199 67.485 105.38 68.4906 105.701 69.1362C105.587 69.2048 105.473 69.273 105.358 69.3416C105.085 69.1273 104.83 68.7633 104.535 68.7281C103.825 68.644 102.798 68.4117 102.431 68.7762C101.164 70.0352 100.123 71.5229 98.9981 72.9257C98.2452 73.865 97.497 74.808 96.7468 75.7495C96.627 75.6799 96.5075 75.6104 96.3878 75.5405C96.5225 75.1391 96.6121 74.7152 96.7992 74.3398C98.1382 71.6498 99.9695 69.3398 102.434 67.6245Z" fill="#92722A"/>
<path d="M121.209 98.9882C122.318 100.42 123.711 101.39 125.661 101.257C125.89 101.241 126.141 101.551 126.383 101.709C126.173 101.962 126.004 102.358 125.743 102.435C125.377 102.543 124.864 102.547 124.55 102.363C122.859 101.37 121.079 100.489 119.961 98.7388C118.57 96.561 117.091 94.4392 115.708 92.2568C115.465 91.8744 115.296 91.4457 115.135 91.0115C116.134 92.2144 117.147 93.4073 118.096 94.6487C119.177 96.0622 120.12 97.5816 121.209 98.9882Z" fill="#92722A"/>
<path d="M115.135 91.0147C114.958 90.8014 114.781 90.5887 114.605 90.3745C114.675 90.3097 114.746 90.2449 114.817 90.1801C114.931 90.4528 115.032 90.7349 115.135 91.0147Z" fill="#92722A"/>
<path d="M102.493 89.133C103.985 91.61 105.548 94.0442 107.068 96.5048C107.28 96.847 107.398 97.2468 107.559 97.6201C108.489 98.1712 109.419 98.7219 110.507 99.3664C110.378 99.8119 110.101 100.597 109.245 99.9855C108.474 99.4353 107.956 98.5318 107.326 97.7841C107.016 97.4602 106.639 97.178 106.405 96.8055C104.865 94.344 103.317 91.885 101.86 89.3738C101.482 88.7227 101.419 87.8887 101.211 87.1387C101.358 87.1029 101.506 87.0671 101.653 87.0314C101.928 87.7353 102.109 88.4954 102.493 89.133Z" fill="#92722A"/>
<path d="M75.809 93.7439C75.1934 94.4809 74.4911 94.071 73.779 93.5626C72.4656 92.625 71.3701 90.7357 71.6073 90.0409C72.9424 91.2177 74.3253 92.4364 75.809 93.7439Z" fill="#92722A"/>
<path d="M118.286 98.2488C118.345 98.7368 118.398 99.1808 118.465 99.7323C114.951 99.9692 112.837 97.5408 112.817 95.239C113.457 96.1434 113.99 96.9426 114.57 97.7062C115.507 98.9385 117.075 99.1802 118.286 98.2488Z" fill="#92722A"/>
<path d="M83.8171 88.0322C83.8472 88.2822 83.525 88.5751 83.3653 88.8481C83.1562 88.5896 82.8071 88.3528 82.7635 88.0688C82.6162 87.1113 82.5455 86.1383 82.5108 85.1689C82.4945 84.7143 82.6281 84.2543 82.6939 83.7969C82.8521 83.8053 83.01 83.8138 83.1681 83.8225C83.3935 85.2248 83.6479 86.6233 83.8171 88.0322Z" fill="#92722A"/>
<path d="M103.535 88.5917C104.775 90.4344 105.988 92.238 107.127 93.9315C105.662 93.792 103.128 90.4226 103.535 88.5917Z" fill="#92722A"/>
<path d="M121.897 93.1072C122.174 92.8892 122.582 92.4233 122.71 92.4905C124.42 93.3894 126.107 94.336 127.757 95.3409C128.079 95.5376 128.221 96.0328 128.446 96.3901C128.368 96.4354 128.291 96.4808 128.213 96.5261C127.255 95.8904 126.298 95.255 125.34 94.6193C125.284 94.6953 125.227 94.7716 125.17 94.8476C125.556 95.4478 125.942 96.0483 126.31 96.621C126.025 96.8498 125.814 97.0192 125.456 97.3063C127.526 98.0482 127.953 100.565 130.218 101.021C130.238 100.439 130.252 100.007 130.267 99.5761C130.378 99.5542 130.489 99.5321 130.6 99.5102C130.862 100.357 131.124 101.203 131.407 102.116C129.909 102.377 128.993 101.886 128.238 100.968C126.718 99.1162 125.189 97.2722 123.663 95.425C123.663 95.6718 123.662 95.9187 123.661 96.483C122.232 94.7102 121.006 93.1887 119.78 91.6673C119.869 91.5648 119.959 91.4624 120.049 91.3599C120.665 91.9421 121.281 92.5248 121.897 93.1072Z" fill="#92722A"/>
<path d="M48.7719 84.7945C48.1936 83.0986 46.3487 82.1144 46.4505 80.0497C47.4442 81.4999 48.4379 82.9501 49.4316 84.4C49.2119 84.5314 48.9919 84.6631 48.7719 84.7945Z" fill="#92722A"/>
<path d="M91.4751 86.6805C91.2942 86.79 91.1132 86.8995 90.9325 87.009C90.1804 85.8029 89.4283 84.5968 88.6759 83.391C88.8493 83.2829 89.0226 83.1747 89.1958 83.0663C89.9558 84.2708 90.7155 85.4755 91.4751 86.6805Z" fill="#92722A"/>
<path d="M102.201 96.3893C102.006 96.4133 101.811 96.4374 101.616 96.4612C101.532 95.3377 101.447 94.2139 101.363 93.0905C101.549 93.0758 101.736 93.0612 101.923 93.0466C102.015 94.1609 102.108 95.2752 102.201 96.3893Z" fill="#92722A"/>
<path d="M73.7097 80.5318C73.5619 80.6061 73.414 80.6803 73.2665 80.7546C72.8286 79.907 72.3906 79.0592 71.9528 78.2116C72.1345 78.1099 72.3165 78.008 72.4983 77.9063C72.9022 78.7814 73.3061 79.6565 73.7097 80.5318Z" fill="#92722A"/>
<path d="M13.8976 72.7509C13.9391 72.6836 13.9794 72.6182 14.0186 72.5547C13.9809 72.6251 13.9406 72.6901 13.8976 72.7509Z" fill="#92722A"/>
<path d="M34.294 67.2015C34.4677 67.0177 34.7544 66.9032 35.049 66.8387L33.9203 67.6207C34.0421 67.478 34.1655 67.3376 34.294 67.2015Z" fill="#92722A"/>
<path d="M15.7185 56.0763C16.469 57.3845 17.3813 58.6197 17.9738 59.9938C18.6671 61.6017 19.0904 63.3258 19.6465 65.0491C19.8872 64.7446 20.1798 64.3179 20.5287 63.9434C21.4101 62.9972 21.3829 62.157 20.8103 60.9259C19.9002 58.969 19.233 56.8522 18.8035 54.7344C18.4876 53.1766 18.6993 51.5087 18.71 49.89C18.7139 49.3083 18.8176 48.7272 18.8756 48.1459C18.9686 48.1349 19.0618 48.1237 19.1549 48.1126C19.9351 50.459 20.0644 53.0815 21.8604 55.055C22.1334 54.8502 22.324 54.7072 22.6058 54.4958C22.7517 54.9514 22.8695 55.3057 22.9784 55.6626C23.0731 55.9732 23.1577 56.287 23.2467 56.5992C23.2818 52.9545 22.4957 49.6245 19.5562 47.1111C20.9845 47.6455 22.1517 48.481 22.6274 49.8266C23.255 51.6019 23.6749 53.4581 24.0715 55.3037C24.3443 56.5733 24.4254 57.8841 24.617 59.3684C25.1521 58.9671 25.4672 58.6974 25.8136 58.4774C26.6405 57.9526 27.0888 57.2264 26.3285 56.442C25.1153 55.1901 25.9266 54.0036 26.3607 52.7381C26.4682 53.3879 26.5757 54.0377 26.6832 54.6874C26.7449 54.6768 26.8066 54.6661 26.8685 54.6556C26.8725 54.0285 26.8763 53.4015 26.8811 52.6658C27.1681 52.807 27.3252 52.8844 27.9937 53.2134C27.9834 51.9245 27.9745 50.8139 27.9656 49.7038C28.0763 49.7128 28.187 49.7218 28.2978 49.7307C28.9131 51.1626 29.2187 52.6387 28.8328 54.2098C28.8245 54.2436 28.7115 54.2515 28.6338 54.2758C28.548 53.9979 28.4622 53.7203 28.393 53.4969C28.2021 54.5364 28.0131 55.5642 27.7995 56.7272C29.1633 55.4768 30.4502 54.3077 31.7189 53.1195C31.8707 52.9774 32.0061 52.7325 32.0108 52.532C32.0441 51.0896 31.9982 49.644 32.0741 48.2044C32.0998 47.714 32.4028 47.2385 32.6963 46.4362C31.9998 44.8836 31.1971 42.9628 30.2692 41.1048C29.9883 40.5421 29.3606 40.1523 28.8359 39.6277C27.6942 42.4896 28.7065 44.9781 29.0429 47.5409C28.5766 46.9189 28.2584 46.261 28.0563 45.5693C27.4611 43.533 27.5921 41.4581 27.891 39.3992C27.9234 39.1754 28.6754 38.7988 28.7864 38.8857C29.5694 39.4993 30.4376 40.1096 30.9603 40.9247C31.6902 42.0632 32.2132 43.3522 32.6985 44.6248C33.5092 46.7508 34.6905 48.8223 34.007 51.3358C35.0233 50.8263 35.9989 50.329 36.802 49.6328C37.1272 49.3507 37.2992 48.5568 37.1506 48.1319C36.8209 47.1888 36.2447 46.3318 35.7689 45.4396C35.8805 45.3713 35.992 45.303 36.1036 45.2348C36.4761 45.7313 36.8486 46.2279 37.2211 46.7245C37.3268 46.6686 37.4324 46.6127 37.5381 46.5568C36.8964 44.5919 36.2548 42.6269 35.613 40.662C35.7371 40.6245 35.8612 40.5869 35.9853 40.5494C37.3987 42.972 37.7439 45.7305 38.3554 48.4798C38.7961 47.9284 39.2217 47.3762 39.2888 46.7831C39.6614 43.4924 38.8818 40.4673 36.9138 37.7857C36.563 37.3078 36.0958 36.8838 35.6051 36.5479C34.8982 36.0642 34.282 36.203 34.0225 36.987C34.283 37.5371 34.4725 38.0553 34.5381 38.5886C34.6903 39.8258 34.7839 41.0702 34.8987 42.3121C34.935 42.7041 34.963 43.0969 34.9949 43.4893C34.8932 43.5126 34.7914 43.5356 34.6897 43.5589C34.5522 43.2019 34.3604 42.8555 34.2862 42.4857C33.9433 40.7763 33.6554 39.0558 33.3002 37.3493C33.1588 36.6694 33.0518 36.009 33.8047 35.6901C34.6273 35.3419 35.4991 35.1997 36.2265 35.9558C36.5944 36.3382 36.9583 36.7281 37.2859 37.1446C38.7237 38.9738 40.0681 40.8342 40.2006 43.3028C40.2586 44.3836 40.5218 45.4535 40.7171 46.6889C41.2369 46.3852 41.616 46.1556 42.0026 45.94C43.2647 45.236 43.7605 44.272 43.2438 42.818C42.9942 42.1158 42.9378 41.3364 42.866 40.585C42.8428 40.3428 42.9779 39.9576 43.1644 39.8473C43.765 39.4923 43.6169 39.081 43.4112 38.5932C43.1809 38.0467 42.9956 37.4809 42.7908 36.9238C42.9255 36.8663 43.0604 36.809 43.195 36.7517C43.7746 37.7372 44.3546 38.7228 44.9325 39.7054C45.2112 38.6511 44.457 37.4408 45.1878 36.3716C45.2316 36.3078 45.1582 36.1511 45.1189 36.0452C44.5806 34.6003 44.1392 33.1238 42.7693 32.147C41.688 31.3759 41.0891 31.4918 40.9405 32.7965C40.8121 33.9241 40.9226 35.079 40.9285 36.4718C40.0736 35.3294 39.7228 34.1761 40.0731 33.0045C40.3096 32.2139 40.885 31.1333 41.5186 30.9638C42.1534 30.794 43.2723 31.4081 43.778 32.0136C44.5563 32.9453 45.2186 34.104 45.5246 35.2723C46.0897 37.4298 46.361 39.6637 46.784 42.031C47.9104 41.3556 49.2287 40.601 50.4965 39.7688C50.7045 39.6322 50.8075 39.1325 50.7523 38.8393C50.6213 38.1437 50.3616 37.4727 50.1619 36.7892C49.8606 35.7585 49.5657 34.7257 49.2683 33.6938C49.3813 33.6563 49.4942 33.6186 49.6073 33.5811C50.2366 34.9728 50.8659 36.3646 51.5438 37.8635C51.4621 36.8068 51.2591 35.8659 51.3453 34.9526C51.5319 32.9721 50.676 31.2514 50.1592 29.4458C49.9436 28.6925 49.202 28.139 48.6379 28.526C48.2092 28.8202 48.1792 29.8137 48.1426 30.5051C48.127 30.8015 48.5714 31.106 48.758 31.4345C48.9661 31.8002 49.1186 32.1974 49.2953 32.5809C49.2095 32.6335 49.1239 32.6864 49.038 32.7391C48.6804 32.3322 48.3227 31.9255 47.9651 31.5186C47.8263 31.5862 47.6873 31.654 47.5485 31.7217C48.2348 33.6477 48.9225 35.5733 49.6069 37.5002C49.8419 38.1618 50.4724 38.7795 49.7644 39.7987C49.3955 39.1513 49.0005 38.6855 48.8479 38.1508C48.2263 35.9716 47.555 33.7931 47.1584 31.5689C46.973 30.5295 47.3422 29.382 47.5285 28.2952C47.569 28.059 47.8665 27.7624 48.1074 27.6848C48.8737 27.4377 50.9962 28.6825 51.1448 29.4811C51.5992 31.9282 52.0129 34.3831 52.4235 36.838C52.4883 37.2265 52.4536 37.6313 52.4705 38.2225C53.1572 37.9011 53.712 37.6785 54.2306 37.3907C55.0297 36.9471 55.3423 36.5026 54.6793 35.5308C53.0139 33.089 52.2238 30.2621 51.5815 27.4114C51.401 26.61 51.3572 25.7503 51.4187 24.9302C51.4777 24.143 51.8367 23.4257 52.8177 23.4473C53.8102 23.4691 55.6544 24.9703 56.0117 25.8932C56.3196 26.6885 56.7227 27.4497 57.1207 28.2064C57.4951 28.9179 57.8415 29.6062 57.3587 30.218C56.6121 28.6817 55.8809 27.109 55.078 25.5739C54.8797 25.1946 54.4963 24.8428 54.112 24.6491C53.7097 24.4464 53.0902 24.2457 52.776 24.421C52.4662 24.5938 52.2276 25.2687 52.2912 25.671C52.5771 27.4859 52.8459 29.3242 53.3879 31.0712C53.7853 32.3516 54.5742 33.5168 55.2467 34.7002C55.3655 34.909 55.7699 34.9556 56.3989 35.2361C56.3837 33.9904 56.3718 33.0085 56.36 32.0333C56.9586 32.0855 57.2338 32.1093 57.5088 32.1333C57.7677 32.1814 58.0267 32.2293 58.2855 32.2771C57.8863 33.1534 57.4875 34.0296 57.0884 34.9058C59.1518 34.0955 60.2572 32.9312 59.763 30.8129C59.7004 30.5443 60.0703 30.1754 60.4023 29.5436C60.7454 30.5803 60.9734 31.2694 61.2014 31.9584C61.3348 31.0804 61.6357 29.9567 61.2066 29.4438C60.2975 28.3572 60.826 27.2816 60.8108 26.1454C61.176 26.6324 61.5414 27.1195 61.8845 27.5768C62.7034 25.4998 62.7017 23.4867 61.4066 21.5334C61.7697 21.698 62.1898 21.8861 62.262 22.1645C62.5696 23.3501 62.8335 24.5548 62.9937 25.7681C63.0865 26.4703 62.9516 27.2026 62.9188 27.9215C62.8707 28.9701 62.9618 30.0506 62.7332 31.0582C62.521 31.9936 62.215 32.9667 61.1534 33.4761C59.8826 34.0857 58.963 35.1066 58.4915 36.4979C59.2931 35.8838 59.8903 35.0847 60.5856 34.3828C60.9309 34.0343 61.4358 33.8131 61.9051 33.6261C62.5226 33.3797 63.1762 33.224 63.8142 33.0293C63.7883 32.9504 63.7625 32.8717 63.7367 32.7928C63.5938 32.7427 63.451 32.6927 63.2876 32.6354C64.0908 32.1222 64.8048 31.647 65.538 31.2036C66.1298 30.8457 66.0357 30.5108 65.7783 29.9082C64.8631 27.7643 63.8981 25.6121 63.3114 23.3693C62.9718 22.0709 63.224 20.5814 63.3891 19.1997C63.523 18.0773 64.9919 17.1438 65.6925 17.5807C67.1559 18.4935 68.0482 19.8295 68.2923 21.5199C68.641 23.9357 68.892 26.3656 69.194 28.8667C70.157 28.4019 71.3122 27.9292 72.3694 27.2932C72.812 27.027 73.2273 26.4561 73.3425 25.9517C73.7524 24.1569 74.0903 22.3394 74.3265 20.5136C74.4372 19.6585 74.7997 18.6841 73.9392 17.7047C73.5595 18.5488 73.1868 19.203 72.9648 19.9049C72.3344 21.8967 71.4059 23.8329 71.8287 26.0393C71.8988 26.4048 71.6103 26.8386 71.4876 27.241C71.3668 27.2034 71.2461 27.1654 71.1254 27.1277C70.9729 24.0266 71.3715 21.0217 72.8983 18.244C73.1367 17.8102 73.5521 17.4193 73.9772 17.1563C74.5648 16.7927 75.0494 17.0226 75.0608 17.7468C75.075 18.6509 75.0529 19.568 74.9157 20.4592C74.6582 22.1328 74.2876 23.7887 74.0108 25.4597C73.9549 25.7972 73.9892 26.3297 74.1956 26.4813C74.4113 26.6398 74.9643 26.565 75.2302 26.3857C76.0379 25.8409 76.8072 25.229 77.5351 24.5801C78.1521 24.03 78.6012 23.2503 79.2815 22.821C80.9813 21.7479 81.736 20.0501 82.3426 18.313C82.5994 17.5775 82.3672 16.6225 82.1963 15.8006C82.0692 15.1892 81.5707 15.2254 81.1506 15.6138C80.8183 15.9209 80.5134 16.2581 80.1965 16.5819C80.3607 15.8694 80.6634 15.2565 81.1145 14.7861C81.6572 14.2204 82.517 14.5061 82.7055 15.2476C83.1335 16.9309 83.3458 18.5915 82.3115 20.167C81.6291 21.2067 80.9941 22.2775 80.3436 23.3377C80.2915 23.4227 80.283 23.5342 80.2576 23.6219C80.5542 23.8318 80.8172 24.0181 81.1908 24.2824C78.938 25.4283 76.7967 26.5176 74.6555 27.6065C74.6971 27.7777 74.7385 27.9489 74.7801 28.1201C77.6391 27.1328 80.3706 27.7581 83.102 28.3877C83.095 28.4879 83.0881 28.588 83.081 28.6882C81.5048 28.5188 79.9286 28.3498 78.3522 28.1806C78.3584 28.2526 78.3647 28.3243 78.3707 28.3962C78.7759 28.6571 79.1811 28.9176 79.7364 29.2751C78.452 29.6131 77.6524 28.2724 76.2735 28.7508C76.8791 29.1295 77.1992 29.3297 77.5191 29.5297C76.2153 29.2826 75.0071 28.5856 73.7759 28.5402C72.4463 28.4914 71.5581 29.688 70.5249 30.6295C73.0337 31.2882 75.5172 30.9576 77.7579 31.9981C75.0624 31.362 72.2871 32.6733 69.6491 31.2648C69.6495 31.3702 69.6498 31.4757 69.6503 31.5811C69.8819 31.8374 70.1134 32.0941 70.345 32.3504C70.3286 32.447 70.3123 32.5436 70.2958 32.6403C67.8512 31.8388 65.8239 32.1941 64.4287 34.5182C64.6914 34.7481 64.9118 34.9406 65.1321 35.1333C64.18 35.016 63.2033 33.9962 62.5083 35.45C63.4367 35.3803 64.4103 35.1302 64.9627 36.2946C65.0584 36.4961 65.4564 36.5392 65.6875 36.6962C65.9137 36.8499 66.1167 37.0442 66.3089 37.2412C66.574 37.5131 66.7662 37.9283 67.083 38.0635C67.9801 38.4464 68.9296 38.704 69.8473 39.0415C70.1423 39.1499 70.5434 39.2877 70.6541 39.5249C71.1173 40.5169 72.1283 40.7833 72.9781 40.1076C73.1949 39.9353 73.5473 39.8146 73.8166 39.8466C75.6809 40.0677 75.6789 40.0825 75.9062 38.138C76.2592 38.2887 76.5892 38.4297 76.9191 38.5706C76.7346 38.5762 76.55 38.5816 76.3655 38.5872C76.4595 38.9883 76.5316 39.3962 76.6519 39.7893C76.9057 40.6185 76.4184 40.7895 75.7652 40.8303C75.3129 40.8587 74.8557 40.854 74.4087 40.9191C72.4734 41.2013 70.671 41.0024 69.026 39.7833C68.3391 39.2743 67.5127 38.7805 66.6935 38.6577C64.745 38.3653 63.236 37.4115 61.8828 36.0749C61.718 35.9121 61.3405 35.7504 61.1822 35.8292C59.9863 36.4259 58.6596 36.8779 57.9549 38.2835C58.4811 38.7038 58.9709 39.4228 59.4513 39.4172C60.9026 39.4003 61.25 40.4612 62.0842 41.669C61.2711 41.595 60.7523 41.5912 60.2529 41.4907C59.7075 41.3809 59.1847 41.0691 58.6439 41.0471C57.7576 41.0105 57.1375 40.8334 56.8501 39.8478C56.774 39.5865 55.8336 39.2552 55.6188 39.4106C54.6274 40.1278 53.7521 41.0055 52.735 41.9153C53.8662 42.5173 54.7635 42.9949 55.661 43.4724C55.6024 43.5836 55.5436 43.695 55.485 43.8062C55.1496 43.7324 54.8139 43.6585 54.1989 43.5231C55.0679 44.1887 55.7136 44.683 56.3724 45.1876C55.5574 45.6437 54.3465 45.1616 53.8048 44.3211C53.4741 43.8077 53.0232 43.3368 52.5313 42.9769C52.2746 42.7892 51.8122 42.8833 51.4427 42.8502C51.546 43.2007 51.5374 43.7144 51.7709 43.8747C52.9975 44.7161 54.2533 45.5275 55.5601 46.2358C57.0505 47.0434 58.5807 47.7904 60.1433 48.4447C60.843 48.7378 61.664 48.7403 62.4298 48.8746C62.4569 48.7688 62.4841 48.6629 62.5112 48.5571C62.0122 47.7678 61.5131 46.9783 60.9003 46.0094C61.3499 46.0184 61.5627 45.9636 61.6162 46.0326C62.2061 46.7948 62.8264 47.542 63.3294 48.3605C63.9634 49.3928 63.7215 49.9046 62.4988 49.783C61.093 49.6432 59.7014 49.2279 58.3406 48.8107C57.4193 48.5283 56.5343 48.0872 55.6817 47.6271C53.6855 46.5499 51.7351 45.3866 49.7232 44.3409C49.3878 44.1665 48.7765 44.2918 48.3983 44.4849C47.7633 44.8088 47.2239 45.3149 46.6239 45.7134C46.0746 46.0781 46.0884 46.4254 46.5005 46.9106C48.3075 49.0395 50.2722 50.9405 53.0256 51.8115C53.3782 51.923 53.6801 52.1946 54.2392 52.5339C53.4988 52.5504 53.0848 52.5597 52.6793 52.5689C53.0876 53.5351 53.4924 54.3414 53.7679 55.1898C54.0163 55.9542 53.6003 56.6387 52.8481 56.5082C51.0164 56.1905 49.2217 55.6579 47.4142 55.2032C47.404 55.2006 47.4245 55.0758 47.4416 54.8869C48.6405 55.1395 49.8065 55.4492 50.9926 55.6087C51.6153 55.6925 52.2732 55.5137 52.9151 55.4536C52.8332 54.8846 52.9036 54.226 52.6337 53.7673C52.2246 53.0716 51.6794 52.3529 51.0104 51.9371C49.9972 51.3076 48.8224 50.942 47.7268 50.4409C47.1562 50.1799 46.6084 49.8684 46.0503 49.5797C46.1015 49.4715 46.1526 49.3633 46.2039 49.2553C46.8166 49.4543 47.429 49.6535 48.0416 49.8525C48.0967 49.7756 48.1517 49.6987 48.2066 49.6217C47.3466 48.7481 46.4962 47.8648 45.6176 47.0103C45.4754 46.8719 45.124 46.7362 45.0138 46.8112C44.2081 47.3594 43.4396 47.9618 42.6239 48.5737C43.4625 49.2493 44.6351 48.6207 45.0953 49.9589C44.3326 49.954 43.6944 49.9496 43.0562 49.9453C43.0144 50.0602 42.9725 50.1748 42.9307 50.2897C43.7157 50.6025 44.4854 50.9662 45.2905 51.2135C46.065 51.4515 46.183 51.7985 45.6695 52.4502C45.3537 52.3596 45.0461 52.2714 44.6655 52.1623C44.652 52.4365 44.6283 52.6181 44.6383 52.7979C44.6477 52.9672 44.6923 53.1347 44.7213 53.3028C44.6394 53.3776 44.5575 53.4524 44.4758 53.5271C43.8249 53.0179 43.1743 52.5088 42.5236 51.9995C43.0827 51.3478 42.4464 50.9781 42.1416 50.5767C41.9164 50.2799 41.5545 50.0869 41.2533 49.8478C41.061 50.173 40.8683 50.4982 40.6583 50.8532C39.8073 50.7569 37.6675 51.7927 37.2875 52.6277C37.192 52.8376 37.3901 53.4 37.5877 53.4843C38.2041 53.7472 38.8864 53.8524 39.5403 54.0298C41.5757 54.5826 43.6124 55.1309 45.6404 55.7099C45.8792 55.7782 46.0671 56.0257 46.2785 56.1902C46.2201 56.3164 46.1618 56.4425 46.1032 56.5685C45.6535 56.4072 45.1456 56.3307 44.7642 56.0697C43.1715 54.9791 41.4003 54.7896 39.5623 54.9663C39.2243 54.9987 38.9148 55.3236 38.717 55.44C39.5756 56.1639 40.2418 56.7257 40.908 57.2875C40.8455 57.5005 40.783 57.7136 40.7206 57.9268C40.005 57.6469 39.2889 57.3669 38.5733 57.087C38.5465 57.2305 38.5199 57.3741 38.4932 57.5175C40.6887 58.531 42.8631 59.6713 45.4004 59.5223C46.6806 59.4472 47.8654 59.0312 48.2197 57.5218C48.8754 58.0975 48.8974 58.6267 48.1475 59.1397C46.7651 60.0854 45.1889 60.5545 43.5299 60.1261C42.1804 59.7776 40.8501 59.2902 39.5803 58.7118C37.7037 57.857 35.7229 57.1476 34.2875 55.5224C34.1677 55.3866 33.6076 55.4961 33.3514 55.6535C32.7359 56.0315 32.1796 56.5055 31.5994 56.9407C31.5043 56.847 31.4089 56.7533 31.3139 56.6596C31.7736 55.7191 32.2332 54.7787 32.6929 53.8382C31.662 55.1117 29.443 55.2957 29.2002 57.5959C29.8278 57.1704 30.2079 56.9126 30.5881 56.6549C30.6725 56.7086 30.7568 56.7622 30.8413 56.816C30.7159 57.2298 30.5908 57.6434 30.3865 58.3188C32.0852 58.5612 33.7734 58.8021 35.4616 59.043C35.4532 59.1171 35.4446 59.1914 35.4362 59.2655C34.5281 59.269 33.62 59.2725 32.7117 59.2761C32.7048 59.358 32.6977 59.44 32.6908 59.5218C33.2922 59.7165 33.8936 59.9111 34.8039 60.2058C34.1534 60.4791 33.8356 60.6127 33.564 60.7269C33.8611 61.0156 34.1755 61.3212 34.4899 61.6265C34.1342 61.7988 33.9443 61.7414 33.7528 61.6896C32.6379 61.3869 31.9895 59.939 30.5739 60.3742C31.3796 61.1004 32.1859 61.8262 33.0053 62.5638C32.9018 62.5602 32.7618 62.5503 32.6221 62.5511C30.8571 62.5614 29.9226 61.2037 28.7529 60.2215C28.4817 59.9938 27.9443 59.6568 27.8192 59.7518C27.1143 60.2865 26.4982 60.938 25.8519 61.5496C26.8157 61.9748 27.5529 62.1388 28.2992 62.2171C29.0308 62.2938 29.7714 62.2837 30.5079 62.3118C30.4998 62.4686 30.4918 62.6253 30.4837 62.7822C28.9461 62.7375 27.4085 62.6929 25.6534 62.6421C26.923 63.0507 28.1618 63.056 29.0908 64.14C28.6061 64.2795 28.3287 64.3594 27.847 64.4979C28.7414 64.9732 29.5412 65.2173 30.0938 65.729C31.2881 66.8343 33.613 66.6799 34.4955 65.2796C35.2193 65.5388 35.5577 65.9224 34.8496 66.5488C34.2223 67.1037 31.2714 67.2461 30.5617 66.8411C29.9415 66.487 29.266 66.2231 28.671 65.8339C27.9565 65.3667 27.325 64.7726 26.6128 64.3011C26.0057 63.8993 25.3353 63.5937 24.6928 63.2455C24.6446 63.3406 24.5963 63.4359 24.5481 63.531C24.6552 63.7607 24.7624 63.9901 24.8849 64.2528C23.4383 64.0836 22.279 64.9151 21.9809 66.4063C24.8863 66.0981 27.6042 66.6248 30.1245 68.0121C25.6761 66.9872 25.6761 66.9872 24.8512 67.8247C25.6542 67.9179 26.4046 68.005 27.1549 68.092C27.1489 68.2054 27.1429 68.3184 27.1369 68.4318C26.2248 68.5537 25.3128 68.6756 24.4009 68.7974C25.5878 69.3799 26.7738 69.847 27.997 69.9859C29.2006 70.1226 30.6043 70.6337 31.4937 69.1514C31.8138 69.3328 32.0877 69.4881 32.3499 69.6365C32.6624 69.2363 32.958 68.8347 33.2568 68.4439C33.2425 68.8194 32.9679 69.5013 31.5381 70.378C30.7045 70.8891 29.2363 71.2195 27.7265 71.4327C27.9278 71.1862 28.1336 70.9333 28.3453 70.6684C26.767 70.3665 25.1997 70.1358 23.6729 69.7455C22.8944 69.5464 22.1653 69.0993 21.466 68.678C21.2824 68.5675 21.2901 68.1354 21.2141 67.8498C21.1658 67.6681 21.1254 67.4841 21.0815 67.3013C20.8913 67.3739 20.6302 67.3905 20.5215 67.5278C19.3074 69.0624 17.9017 70.4976 16.973 72.1931C16.339 73.3503 15.7087 74.5268 15.2419 75.767C14.2955 76.1523 13.2225 76.4725 12.2104 76.5129C12.1427 75.7729 12.0095 75.0466 11.8455 74.3261C12.3519 73.9745 12.9087 73.5998 13.4108 73.216C13.4372 73.2815 13.4628 73.3449 13.4896 73.4125C13.6415 73.1684 13.7751 72.9513 13.8989 72.7501C13.9416 72.6894 13.9822 72.6244 14.0199 72.554C14.2067 72.2514 14.373 71.9844 14.5441 71.7224C14.7922 71.3428 14.9929 70.8862 15.3364 70.6225C17.4333 69.0134 17.3732 67.2557 15.9386 65.2138C15.3534 64.3809 15.0854 63.3252 14.673 62.3709C14.7845 62.3072 14.8959 62.2433 15.0075 62.1795C16.091 63.6239 17.1745 65.0684 18.258 66.5127C18.3588 66.5083 18.4594 66.5039 18.5601 66.4993C18.5317 66.1815 18.5913 65.8204 18.4595 65.5537C17.9575 64.5378 17.374 63.5626 16.863 62.5509C16.6551 62.1391 16.5548 61.6729 16.4053 61.2316C16.4973 61.1786 16.5894 61.1254 16.6814 61.0724C17.2096 61.7765 17.7379 62.4808 18.4468 63.4258C18.3872 62.8926 18.4243 62.5926 18.3165 62.3594C17.508 60.607 16.7221 58.8407 15.8102 57.1425C15.5555 56.6679 14.863 56.447 14.4473 56.0332C14.1832 55.7702 14.0586 55.3663 13.7351 54.7772C13.3589 54.7097 12.9901 54.9128 12.6427 55.2285C12.8342 54.771 13.1698 54.3958 13.5564 54.1007C14.0943 54.2735 14.6426 54.4652 15.0722 54.7947C15.4124 55.0567 15.4778 55.6569 15.7185 56.0763ZM69.0136 30.4462C69.8958 29.9153 70.7781 29.3843 71.6604 28.8535C71.5954 28.7472 71.5306 28.6411 71.4659 28.5346C70.5692 29.0815 69.6726 29.6288 68.776 30.1757C68.8551 30.2659 68.9344 30.3561 69.0136 30.4462ZM67.0012 29.8683C66.7839 28.9025 66.5729 27.9354 66.3438 26.9724C66.3013 26.794 66.0829 26.6022 66.1226 26.4701C66.2371 26.0904 66.4422 25.7382 66.6116 25.3751C66.8447 25.6582 67.2203 25.9131 67.2838 26.23C67.4613 27.1168 67.5057 28.0296 67.6118 28.931C67.6405 29.1756 67.7014 29.4166 67.7942 29.905C67.9983 29.4997 68.1746 29.3159 68.166 29.1413C68.06 26.9937 68.0057 24.8389 67.7683 22.7047C67.6451 21.5981 67.3118 20.4671 66.8242 19.4687C66.5851 18.9792 65.8012 18.5803 65.2171 18.5044C64.9019 18.4635 64.3166 19.13 64.1586 19.584C63.917 20.2776 63.7549 21.0976 63.8858 21.8037C64.2265 23.6422 63.8681 25.7087 65.4944 27.1847C65.7146 27.3845 65.7417 27.7977 65.8576 28.1123C66.0868 28.7335 66.3154 29.3548 66.5443 29.9763C66.6966 29.9403 66.8488 29.9042 67.0012 29.8683ZM53.8663 38.3205C53.0404 38.9401 52.2143 39.5598 51.3884 40.1793C51.4318 40.257 51.4754 40.3348 51.5189 40.4128C52.3546 39.7859 53.1905 39.1589 54.0263 38.5319C53.973 38.4616 53.9197 38.391 53.8663 38.3205ZM51.3255 41.9033C51.9368 41.3968 52.5483 40.8906 53.1595 40.3842C53.0443 40.2569 52.929 40.1294 52.8138 40.002C52.2429 40.5502 51.6722 41.0986 51.1013 41.6469C51.1759 41.7323 51.2506 41.8178 51.3255 41.9033ZM48.639 42.4209C48.7013 42.6583 48.747 42.791 48.7685 42.9271C48.7905 43.0664 48.7889 43.2096 48.7976 43.3513C48.9504 43.3706 49.1033 43.3901 49.2565 43.4095C49.2631 42.9733 49.4234 42.454 49.2428 42.1188C48.913 41.5069 48.4128 41.8295 48.0154 42.1606C47.0498 42.965 46.0919 43.7788 45.2704 44.7631C46.9484 44.8387 47.6261 43.5067 48.639 42.4209ZM41.9157 48.2423C42.4237 47.7207 42.6658 46.9398 43.0248 46.273C43.1133 46.3026 43.2017 46.3323 43.2902 46.362C43.3098 46.5918 43.3292 46.8214 43.3555 47.1292C44.144 46.7019 44.8419 46.3476 44.5013 45.282C42.4987 46.223 40.9605 47.5715 39.9111 49.5066C40.5899 49.0954 41.3796 48.7926 41.9157 48.2423ZM37.8761 51.1451C38.2895 50.8858 38.7515 50.7042 39.1372 50.5157C38.088 49.7665 38.0835 49.7647 36.7645 51.1417C37.1286 51.6665 37.4778 51.3949 37.8761 51.1451ZM35.0037 53.6894C35.5806 52.8437 36.1578 51.9981 36.7347 51.1524C35.6586 50.9043 35.5624 52.0078 35.009 52.466C34.7746 52.66 34.7751 53.1376 34.6688 53.486C34.7804 53.554 34.892 53.6216 35.0037 53.6894ZM29.9082 60.2258C30.0689 60.3452 30.3376 60.3195 30.5572 60.3599C30.5598 60.3623 30.5624 60.3646 30.565 60.3669C30.9333 60.0573 31.3025 59.7471 31.7257 59.3912C31.2794 59.2049 30.6866 58.9002 30.0586 58.7129C29.5425 58.5591 28.9536 58.674 29.0416 59.3524C29.0835 59.6795 29.574 59.9775 29.9082 60.2258ZM25.1163 61.4741C25.0454 61.3732 24.9744 61.2722 24.9035 61.1712C24.3058 61.5532 23.7081 61.9354 23.1103 62.3174C23.2108 62.4627 23.311 62.6077 23.4113 62.7531C23.9797 62.3267 24.5481 61.9004 25.1163 61.4741ZM22.1776 61.0527C22.0555 59.5595 22.135 57.9536 21.7446 56.471C21.3518 54.9791 20.4915 53.6099 19.836 52.1867C19.7151 52.2384 19.5942 52.2897 19.4733 52.3414C18.9694 55.2708 20.5584 60.2319 22.1776 61.0527ZM15.9889 70.9983C15.3393 71.9903 14.7354 73.0173 14.0157 73.9552C13.7581 74.2909 13.22 74.411 12.6464 74.7165C12.7119 74.8999 12.8498 75.2844 13.0203 75.7609C15.1732 74.8048 15.0653 72.5481 16.3218 71.1971C16.2107 71.1309 16.0997 71.0645 15.9889 70.9983Z" fill="#92722A"/>
<path d="M13.0732 57.8737C12.9376 57.2116 12.5128 56.4157 13.2573 55.8951C13.753 57.8493 14.2435 59.7837 14.7342 61.7183C14.6617 61.7567 14.5893 61.7948 14.5168 61.8333C14.198 61.3044 13.8793 60.7751 13.4635 60.085C13.4086 60.1553 13.3549 60.2232 13.3006 60.2924C13.2184 59.9283 13.1291 59.5273 13.0383 59.1093C13.1633 58.7716 13.1733 58.3619 13.0732 57.8737Z" fill="#92722A"/>
<path d="M23.1978 47.7219C22.6592 46.4457 22.7552 45.3384 23.3694 44.1589C23.7966 43.3383 24.2689 43.1675 24.9188 43.8604C25.7731 44.7713 26.6341 45.6809 27.4182 46.6507C27.7007 46.9999 27.7693 47.5224 27.9356 47.9657C27.8532 47.9916 27.7704 48.0175 27.688 48.0434C26.7587 47.0215 25.8293 45.9999 24.8999 44.978C24.7735 45.0196 24.6472 45.0611 24.5207 45.1027C25.6265 46.9865 24.8498 48.935 24.9631 50.8529C25.0033 51.5341 25.0673 52.2139 25.1204 52.8945C25.0284 52.9156 24.9366 52.9366 24.8446 52.9577C24.6423 52.4483 24.3992 51.9507 24.2458 51.4269C23.885 50.1939 23.6931 48.8951 23.1978 47.7219Z" fill="#92722A"/>
<path d="M84.071 17.6478C84.3816 16.6778 84.6878 15.6966 85.1168 14.7772C85.6296 13.6784 86.5606 12.9834 87.7818 12.9371C88.1844 12.9218 88.83 13.3033 88.9825 13.6645C89.9658 15.9939 89.4569 18.3708 87.4973 19.9747C86.0176 21.1856 84.3444 22.1602 82.7574 23.2399C82.6129 23.163 82.4682 23.0861 82.3237 23.0092C82.4098 22.8443 82.5233 22.6879 82.5774 22.5131C83.0787 20.8925 83.5536 19.2633 84.071 17.6478ZM84.0734 21.2769C84.5351 20.7447 84.9969 20.2123 85.5323 19.5952C85.6488 19.9193 85.7276 20.1381 85.8085 20.3632C88.04 19.2447 89.2367 16.609 88.6452 14.3693C88.4208 13.5196 87.8621 13.3785 87.302 13.7325C86.6597 14.1385 85.9355 14.6971 85.6681 15.36C84.9162 17.2229 84.3808 19.1732 83.7599 21.0892C83.8645 21.1517 83.969 21.2144 84.0734 21.2769Z" fill="#92722A"/>
<path d="M69.126 44.2254C69.4567 44.1837 70.0334 43.3647 69.9536 43.2328C69.288 42.1316 68.7739 40.8563 67.2106 40.6203C66.1534 40.4607 65.1284 40.0859 64.0889 39.8073C64.1131 39.701 64.137 39.5948 64.1612 39.4886C66.4028 39.1719 70.1465 41.3924 70.8458 43.4449C71.0723 44.11 70.8526 44.6376 70.2192 44.8002C69.3223 45.0303 68.3882 45.1938 67.4644 45.2265C65.0919 45.3105 63.2168 44.0625 61.3803 42.7599C62.1147 42.8496 62.7942 43.0928 63.4128 43.4438C65.2198 44.4702 67.1697 44.4724 69.126 44.2254Z" fill="#92722A"/>
<path d="M57.9858 21.8687C58.0603 21.2904 58.5334 20.5545 59.0304 20.3077C59.4231 20.1126 60.1334 20.5564 60.7026 20.7165C60.6813 20.8236 60.6598 20.9307 60.6385 21.0378C60.358 21.0858 59.9962 21.0406 59.8126 21.2003C59.3709 21.5849 58.6644 22.081 58.6838 22.5044C58.7507 23.9675 59.0811 25.419 59.3142 26.8743C59.4702 27.8487 59.6311 28.8224 59.79 29.7964C59.6818 29.8308 59.5737 29.8651 59.4654 29.8994C59.2958 29.5966 59.0875 29.3088 58.9625 28.9885C58.0657 26.6942 57.6708 24.3102 57.9858 21.8687Z" fill="#92722A"/>
<path d="M87.3728 27.7305C88.8527 27.8452 90.2087 27.5328 91.2016 26.2753C91.3183 26.1274 91.6446 26.145 91.8736 26.0858C91.912 26.3528 92.0595 26.6728 91.9622 26.8743C91.8266 27.1556 91.5464 27.4698 91.2618 27.559C89.7275 28.0397 88.2127 28.6359 86.5342 28.3513C84.4457 27.9971 82.3426 27.7275 80.2554 27.3664C79.8897 27.303 79.5362 27.1698 79.1838 27.0286C80.4646 27.0838 81.7465 27.1256 83.0231 27.2324C84.4767 27.354 85.9189 27.6176 87.3728 27.7305Z" fill="#92722A"/>
<path d="M79.1848 27.0289C78.9578 27.0191 78.7308 27.0098 78.504 26.9988C78.5034 26.9203 78.503 26.8416 78.5025 26.7631C78.731 26.8439 78.9578 26.9379 79.1848 27.0289Z" fill="#92722A"/>
<path d="M71.0846 33.6759C73.4106 34.1332 75.7495 34.524 78.0808 34.9553C78.4051 35.0154 78.713 35.1637 79.0285 35.2713C79.8753 35.0097 80.7218 34.748 81.7122 34.4419C81.9116 34.7657 82.236 35.3659 81.3935 35.5494C80.6351 35.7145 79.8007 35.5321 78.9999 35.503C78.6322 35.5132 78.2532 35.5869 77.8986 35.5235C75.5553 35.1043 73.2097 34.6905 70.8824 34.1929C70.2788 34.064 69.7372 33.6436 69.1671 33.3571C69.2266 33.2478 69.286 33.1385 69.3455 33.0292C69.9241 33.25 70.4857 33.5583 71.0846 33.6759Z" fill="#92722A"/>
<path d="M59.1951 52.42C59.3039 53.1997 58.6682 53.4006 57.9674 53.5533C56.6748 53.8349 54.9241 53.4602 54.6327 52.9336C56.0825 52.7706 57.5841 52.6014 59.1951 52.42Z" fill="#92722A"/>
<path d="M85.3154 29.0991C85.6441 29.3322 85.9432 29.5442 86.3148 29.8074C84.5243 32.0722 81.8851 32.0197 80.476 30.7646C81.3777 30.8736 82.1569 30.9896 82.9401 31.0576C84.2041 31.1673 85.2143 30.3477 85.3154 29.0991Z" fill="#92722A"/>
<path d="M60.1344 44.4139C60.3027 44.5333 60.3033 44.8903 60.3812 45.1376C60.1091 45.1223 59.773 45.204 59.5765 45.0741C58.9138 44.6364 58.2839 44.1437 57.6759 43.6311C57.3908 43.3907 57.185 43.0564 56.9434 42.7646C57.0356 42.6731 57.1276 42.5819 57.22 42.4906C58.1958 43.1257 59.1854 43.7411 60.1344 44.4139Z" fill="#92722A"/>
<path d="M71.3278 32.7448C73.1294 33.0064 74.8927 33.2624 76.5485 33.5029C75.6573 34.3158 72.2155 34.0003 71.3278 32.7448Z" fill="#92722A"/>
<path d="M84.1812 24.0791C84.2015 23.7905 84.1428 23.2866 84.254 23.2459C85.7413 22.7022 87.245 22.1986 88.7637 21.7496C89.061 21.6617 89.4396 21.8485 89.7805 21.9085C89.7652 21.9807 89.7501 22.0527 89.7348 22.1249C88.8215 22.3566 87.9085 22.5884 86.9951 22.8201C87.0102 22.8963 87.0254 22.9727 87.0404 23.0489C87.6172 23.1451 88.1943 23.2414 88.7447 23.3333C88.7268 23.6323 88.7136 23.8536 88.691 24.2291C90.2812 23.3802 92.0448 24.5062 93.5691 23.3813C93.2262 23.0491 92.9721 22.8028 92.7181 22.5565C92.766 22.4769 92.8138 22.3972 92.8617 22.3177C93.5201 22.6243 94.1786 22.9312 94.8885 23.2618C94.2224 24.316 93.4199 24.6017 92.4468 24.5546C90.4851 24.459 88.5232 24.3726 86.5612 24.2824C86.7109 24.4186 86.8606 24.5548 87.2026 24.8662C85.3392 24.7582 83.7399 24.6655 82.1408 24.5726C82.1279 24.4617 82.1152 24.3507 82.1024 24.2398C82.7953 24.1859 83.4882 24.1327 84.1812 24.0791Z" fill="#92722A"/>
<path d="M38.8731 63.9191C37.5246 63.3367 35.9111 63.9155 34.713 62.717C36.141 62.9118 37.5689 63.1065 38.9967 63.3011C38.9555 63.507 38.9144 63.7131 38.8731 63.9191Z" fill="#92722A"/>
<path d="M63.5279 39.0161C63.4948 39.1863 63.4617 39.3565 63.4287 39.5265C62.2821 39.3194 61.1355 39.1122 59.9888 38.9054C60.0186 38.7406 60.0483 38.5758 60.0778 38.4109C61.2278 38.6124 62.3778 38.8141 63.5279 39.0161Z" fill="#92722A"/>
<path d="M75.3287 37.852C75.236 37.9837 75.1434 38.1153 75.0506 38.2468C74.3217 37.6795 73.5925 37.1123 72.8636 36.545C72.9575 36.4236 73.0514 36.3021 73.1454 36.1806C73.8731 36.7379 74.601 37.295 75.3287 37.852Z" fill="#92722A"/>
<path d="M50.0144 46.4264C49.9781 46.5571 49.9418 46.6878 49.9056 46.8183C49.1497 46.6176 48.3937 46.417 47.6378 46.2163C47.676 46.05 47.7144 45.8833 47.7526 45.7169C48.5066 45.9533 49.2605 46.1897 50.0144 46.4264Z" fill="#92722A"/>
</g>
</svg>
